pfont-Regular.ufo
<glyph name="exclam" format="1">
  <advance width="452"/>
  <unicode hex="0021"/>
  <outline>
    <contour>
      <point x="264" y="381" type="line"/>
      <point x="271" y="385"/>
      <point x="275" y="389"/>
      <point x="275" y="398" type="curve"/>
      <point x="270" y="1216" type="line"/>
      <point x="270" y="1227"/>
      <point x="263" y="1232"/>
      <point x="253" y="1228" type="curve"/>
      <point x="138" y="1188" type="line" smooth="yes"/>
      <point x="130" y="1185"/>
      <point x="127" y="1180"/>
      <point x="127" y="1171" type="curve"/>
      <point x="172" y="336" type="line"/>
    </contour>
    <component base="period" xScale="0.803" yScale="0.803" xOffset="27" yOffset="-23"/>
  </outline>
</glyph>
<glyph name="quotedbl" format="1">
  <advance width="548"/>
  <unicode hex="0022"/>
  <outline>
    <contour>
      <point x="183" y="1006" type="line" smooth="yes"/>
      <point x="188" y="1006"/>
      <point x="190" y="1005"/>
      <point x="190" y="1009" type="curve"/>
      <point x="218" y="1438" type="line"/>
      <point x="218" y="1441"/>
      <point x="217" y="1445"/>
      <point x="213" y="1445" type="curve" smooth="yes"/>
      <point x="109" y="1445" type="line" smooth="yes"/>
      <point x="105" y="1445"/>
      <point x="102" y="1445"/>
      <point x="102" y="1440" type="curve" smooth="yes"/>
      <point x="100" y="1013" type="line" smooth="yes"/>
      <point x="100" y="1010"/>
      <point x="101" y="1006"/>
      <point x="103" y="1006" type="curve" smooth="yes"/>
    </contour>
    <contour>
      <point x="413" y="1006" type="line" smooth="yes"/>
      <point x="418" y="1006"/>
      <point x="420" y="1005"/>
      <point x="420" y="1009" type="curve"/>
      <point x="448" y="1438" type="line"/>
      <point x="448" y="1441"/>
      <point x="447" y="1445"/>
      <point x="443" y="1445" type="curve" smooth="yes"/>
      <point x="339" y="1445" type="line" smooth="yes"/>
      <point x="335" y="1445"/>
      <point x="332" y="1445"/>
      <point x="332" y="1440" type="curve" smooth="yes"/>
      <point x="330" y="1013" type="line" smooth="yes"/>
      <point x="330" y="1010"/>
      <point x="331" y="1006"/>
      <point x="333" y="1006" type="curve" smooth="yes"/>
    </contour>
  </outline>
</glyph>
<glyph name="numbersign" format="1">
  <advance width="1195"/>
  <unicode hex="0023"/>
  <outline>
    <contour>
      <point x="361" y="30" type="line" smooth="yes"/>
      <point x="368" y="30"/>
      <point x="375" y="35"/>
      <point x="376" y="43" type="curve" smooth="yes"/>
      <point x="421" y="353" type="line"/>
      <point x="658" y="353" type="line"/>
      <point x="614" y="48" type="line"/>
      <point x="613" y="38"/>
      <point x="620" y="30"/>
      <point x="630" y="30" type="curve" smooth="yes"/>
      <point x="696" y="30" type="line" smooth="yes"/>
      <point x="703" y="30"/>
      <point x="710" y="35"/>
      <point x="711" y="43" type="curve" smooth="yes"/>
      <point x="756" y="353" type="line"/>
      <point x="996" y="353" type="line" smooth="yes"/>
      <point x="1003" y="353"/>
      <point x="1009" y="357"/>
      <point x="1010" y="365" type="curve"/>
      <point x="1021" y="427" type="line" smooth="yes"/>
      <point x="1023" y="437"/>
      <point x="1015" y="446"/>
      <point x="1005" y="446" type="curve" smooth="yes"/>
      <point x="770" y="446" type="line"/>
      <point x="814" y="755" type="line"/>
      <point x="1070" y="755" type="line" smooth="yes"/>
      <point x="1077" y="755"/>
      <point x="1083" y="759"/>
      <point x="1084" y="767" type="curve"/>
      <point x="1095" y="829" type="line" smooth="yes"/>
      <point x="1097" y="839"/>
      <point x="1089" y="848"/>
      <point x="1079" y="848" type="curve" smooth="yes"/>
      <point x="828" y="848" type="line"/>
      <point x="874" y="1166" type="line"/>
      <point x="875" y="1176"/>
      <point x="868" y="1184"/>
      <point x="858" y="1184" type="curve" smooth="yes"/>
      <point x="792" y="1184" type="line" smooth="yes"/>
      <point x="785" y="1184"/>
      <point x="778" y="1179"/>
      <point x="777" y="1171" type="curve" smooth="yes"/>
      <point x="730" y="848" type="line"/>
      <point x="493" y="848" type="line"/>
      <point x="539" y="1166" type="line"/>
      <point x="540" y="1176"/>
      <point x="533" y="1184"/>
      <point x="523" y="1184" type="curve" smooth="yes"/>
      <point x="457" y="1184" type="line" smooth="yes"/>
      <point x="450" y="1184"/>
      <point x="443" y="1179"/>
      <point x="442" y="1171" type="curve" smooth="yes"/>
      <point x="395" y="848" type="line"/>
      <point x="185" y="848" type="line" smooth="yes"/>
      <point x="178" y="848"/>
      <point x="171" y="843"/>
      <point x="170" y="835" type="curve" smooth="yes"/>
      <point x="161" y="773" type="line"/>
      <point x="160" y="763"/>
      <point x="167" y="755"/>
      <point x="177" y="755" type="curve" smooth="yes"/>
      <point x="382" y="755" type="line"/>
      <point x="337" y="446" type="line"/>
      <point x="124" y="446" type="line" smooth="yes"/>
      <point x="117" y="446"/>
      <point x="110" y="441"/>
      <point x="109" y="433" type="curve" smooth="yes"/>
      <point x="100" y="371" type="line"/>
      <point x="99" y="361"/>
      <point x="106" y="353"/>
      <point x="116" y="353" type="curve" smooth="yes"/>
      <point x="323" y="353" type="line"/>
      <point x="279" y="48" type="line"/>
      <point x="278" y="38"/>
      <point x="285" y="30"/>
      <point x="295" y="30" type="curve" smooth="yes"/>
    </contour>
    <contour>
      <point x="480" y="755" type="line"/>
      <point x="716" y="755" type="line"/>
      <point x="672" y="446" type="line"/>
      <point x="435" y="446" type="line"/>
    </contour>
  </outline>
</glyph>
<glyph name="quotesingle" format="1">
  <advance width="318"/>
  <unicode hex="0027"/>
  <outline>
    <contour>
      <point x="183" y="1006" type="line" smooth="yes"/>
      <point x="188" y="1006"/>
      <point x="190" y="1005"/>
      <point x="190" y="1009" type="curve"/>
      <point x="218" y="1438" type="line"/>
      <point x="218" y="1441"/>
      <point x="217" y="1445"/>
      <point x="213" y="1445" type="curve" smooth="yes"/>
      <point x="109" y="1445" type="line" smooth="yes"/>
      <point x="105" y="1445"/>
      <point x="102" y="1445"/>
      <point x="102" y="1440" type="curve" smooth="yes"/>
      <point x="100" y="1013" type="line" smooth="yes"/>
      <point x="100" y="1010"/>
      <point x="101" y="1006"/>
      <point x="103" y="1006" type="curve" smooth="yes"/>
    </contour>
  </outline>
</glyph>
<glyph name="parenleft" format="1">
  <advance width="572"/>
  <unicode hex="0028"/>
  <outline>
    <contour>
      <point x="459" y="-300" type="line" smooth="yes"/>
      <point x="471" y="-300"/>
      <point x="475" y="-292"/>
      <point x="469" y="-282" type="curve" smooth="yes"/>
      <point x="165" y="206"/>
      <point x="163" y="683"/>
      <point x="468" y="1151" type="curve" smooth="yes"/>
      <point x="475" y="1161"/>
      <point x="470" y="1169"/>
      <point x="458" y="1169" type="curve" smooth="yes"/>
      <point x="390" y="1169" type="line" smooth="yes"/>
      <point x="382" y="1169"/>
      <point x="377" y="1166"/>
      <point x="372" y="1160" type="curve"/>
      <point x="9" y="671"/>
      <point x="9" y="187"/>
      <point x="372" y="-291" type="curve"/>
      <point x="377" y="-297"/>
      <point x="382" y="-300"/>
      <point x="390" y="-300" type="curve" smooth="yes"/>
    </contour>
  </outline>
</glyph>
<glyph name="parenright" format="1">
  <advance width="612"/>
  <unicode hex="0029"/>
  <outline>
    <contour>
      <point x="202" y="-300" type="line" smooth="yes"/>
      <point x="210" y="-300"/>
      <point x="215" y="-297"/>
      <point x="220" y="-291" type="curve"/>
      <point x="583" y="187"/>
      <point x="583" y="671"/>
      <point x="220" y="1160" type="curve"/>
      <point x="215" y="1166"/>
      <point x="210" y="1169"/>
      <point x="202" y="1169" type="curve" smooth="yes"/>
      <point x="134" y="1169" type="line" smooth="yes"/>
      <point x="122" y="1169"/>
      <point x="117" y="1161"/>
      <point x="124" y="1151" type="curve" smooth="yes"/>
      <point x="429" y="683"/>
      <point x="427" y="206"/>
      <point x="123" y="-282" type="curve" smooth="yes"/>
      <point x="117" y="-292"/>
      <point x="121" y="-300"/>
      <point x="133" y="-300" type="curve" smooth="yes"/>
    </contour>
  </outline>
</glyph>
<glyph name="plus" format="1">
  <advance width="896"/>
  <unicode hex="002B"/>
  <outline>
    <contour>
      <point x="507" y="108" type="line"/>
      <point x="502" y="388" type="line"/>
      <point x="796" y="388" type="line"/>
      <point x="796" y="499" type="line"/>
      <point x="504" y="499" type="line"/>
      <point x="503" y="763" type="line"/>
      <point x="388" y="762" type="line"/>
      <point x="393" y="499" type="line"/>
      <point x="100" y="499" type="line"/>
      <point x="100" y="388" type="line"/>
      <point x="393" y="388" type="line"/>
      <point x="398" y="106" type="line"/>
    </contour>
  </outline>
</glyph>
<glyph name="period" format="1">
  <advance width="514"/>
  <unicode hex="002E"/>
  <outline>
    <contour>
      <point x="308" y="-47" type="curve" smooth="yes"/>
      <point x="389" y="65" type="line"/>
      <point x="423" y="117"/>
      <point x="425" y="131"/>
      <point x="380" y="162" type="curve" smooth="yes"/>
      <point x="341" y="189"/>
      <point x="285" y="226"/>
      <point x="253" y="245" type="curve" smooth="yes"/>
      <point x="237" y="254"/>
      <point x="222" y="250"/>
      <point x="212" y="235" type="curve" smooth="yes"/>
      <point x="106" y="80" type="line" smooth="yes"/>
      <point x="95" y="63"/>
      <point x="98" y="50"/>
      <point x="115" y="39" type="curve" smooth="yes"/>
      <point x="266" y="-56" type="line" smooth="yes"/>
      <point x="282" y="-66"/>
      <point x="296" y="-63"/>
    </contour>
  </outline>
</glyph>
<glyph name="slash" format="1">
  <advance width="902"/>
  <unicode hex="002F"/>
  <outline>
    <contour>
      <point x="202" y="-342" type="line"/>
      <point x="802" y="1210" type="line"/>
      <point x="700" y="1210" type="line"/>
      <point x="100" y="-342" type="line"/>
    </contour>
  </outline>
</glyph>
<glyph name="semicolon" format="1">
  <advance width="446"/>
  <unicode hex="003B"/>
  <outline>
    <contour>
      <point x="235" y="619"/>
      <point x="250" y="622"/>
      <point x="261" y="638" type="curve" smooth="yes"/>
      <point x="320" y="720" type="line"/>
      <point x="346" y="760"/>
      <point x="355" y="767"/>
      <point x="312" y="797" type="curve" smooth="yes"/>
      <point x="284" y="816"/>
      <point x="245" y="839"/>
      <point x="220" y="853" type="curve" smooth="yes"/>
      <point x="204" y="862"/>
      <point x="189" y="858"/>
      <point x="179" y="843" type="curve" smooth="yes"/>
      <point x="106" y="735" type="line" smooth="yes"/>
      <point x="95" y="718"/>
      <point x="98" y="705"/>
      <point x="115" y="694" type="curve" smooth="yes"/>
      <point x="219" y="629" type="line" smooth="yes"/>
    </contour>
    <contour>
      <point x="182" y="-172"/>
      <point x="195" y="-165"/>
      <point x="204" y="-149" type="curve" smooth="yes"/>
      <point x="256" y="-50" type="line"/>
      <point x="334" y="73"/>
      <point x="420" y="253"/>
      <point x="236" y="357" type="curve" smooth="yes"/>
      <point x="219" y="366"/>
      <point x="205" y="363"/>
      <point x="195" y="345" type="curve" smooth="yes"/>
      <point x="144" y="255" type="line" smooth="yes"/>
      <point x="134" y="237"/>
      <point x="138" y="224"/>
      <point x="155" y="215" type="curve" smooth="yes"/>
      <point x="224" y="176"/>
      <point x="275" y="130"/>
      <point x="199" y="-4" type="curve" smooth="yes"/>
      <point x="135" y="-117" type="line" smooth="yes"/>
      <point x="125" y="-135"/>
      <point x="131" y="-149"/>
      <point x="149" y="-157" type="curve" smooth="yes"/>
      <point x="164" y="-164" type="line" smooth="yes"/>
    </contour>
  </outline>
</glyph>
<glyph name="bracketleft" format="1">
  <advance width="504"/>
  <unicode hex="005B"/>
  <outline>
    <contour>
      <point x="389" y="-472" type="line" smooth="yes"/>
      <point x="397" y="-472"/>
      <point x="404" y="-465"/>
      <point x="404" y="-457" type="curve" smooth="yes"/>
      <point x="404" y="-408" type="line" smooth="yes"/>
      <point x="404" y="-400"/>
      <point x="397" y="-393"/>
      <point x="389" y="-393" type="curve" smooth="yes"/>
      <point x="209" y="-393" type="line"/>
      <point x="209" y="1262" type="line"/>
      <point x="389" y="1262" type="line" smooth="yes"/>
      <point x="397" y="1262"/>
      <point x="404" y="1269"/>
      <point x="404" y="1277" type="curve" smooth="yes"/>
      <point x="404" y="1326" type="line" smooth="yes"/>
      <point x="404" y="1334"/>
      <point x="397" y="1341"/>
      <point x="389" y="1341" type="curve" smooth="yes"/>
      <point x="115" y="1341" type="line" smooth="yes"/>
      <point x="107" y="1341"/>
      <point x="100" y="1334"/>
      <point x="100" y="1326" type="curve" smooth="yes"/>
      <point x="100" y="-457" type="line" smooth="yes"/>
      <point x="100" y="-465"/>
      <point x="107" y="-472"/>
      <point x="115" y="-472" type="curve" smooth="yes"/>
    </contour>
  </outline>
</glyph>
<glyph name="backslash" format="1">
  <advance width="902"/>
  <unicode hex="005C"/>
  <outline>
    <contour>
      <point x="802" y="-342" type="line"/>
      <point x="202" y="1210" type="line"/>
      <point x="100" y="1210" type="line"/>
      <point x="700" y="-342" type="line"/>
    </contour>
  </outline>
</glyph>
<glyph name="asciicircum" format="1">
  <advance width="1166"/>
  <unicode hex="005E"/>
  <outline>
    <contour>
      <point x="228" y="549" type="line"/>
      <point x="583" y="1384" type="line"/>
      <point x="939" y="549" type="line"/>
      <point x="1066" y="549" type="line"/>
      <point x="658" y="1519" type="line"/>
      <point x="508" y="1519" type="line"/>
      <point x="100" y="549" type="line"/>
    </contour>
  </outline>
</glyph>
<glyph name="braceleft" format="1">
  <advance width="631"/>
  <unicode hex="007B"/>
  <outline>
    <contour>
      <point x="516" y="-474" type="line" smooth="yes"/>
      <point x="524" y="-474"/>
      <point x="531" y="-467"/>
      <point x="531" y="-459" type="curve" smooth="yes"/>
      <point x="531" y="-410" type="line" smooth="yes"/>
      <point x="531" y="-402"/>
      <point x="524" y="-395"/>
      <point x="516" y="-395" type="curve" smooth="yes"/>
      <point x="367" y="-395" type="line" smooth="yes"/>
      <point x="350" y="-395"/>
      <point x="336" y="-381"/>
      <point x="336" y="-364" type="curve" smooth="yes"/>
      <point x="336" y="195" type="line" smooth="yes"/>
      <point x="336" y="310"/>
      <point x="269" y="377"/>
      <point x="217" y="434" type="curve"/>
      <point x="269" y="491"/>
      <point x="336" y="558"/>
      <point x="336" y="673" type="curve" smooth="yes"/>
      <point x="336" y="1232" type="line" smooth="yes"/>
      <point x="336" y="1249"/>
      <point x="350" y="1263"/>
      <point x="367" y="1263" type="curve" smooth="yes"/>
      <point x="516" y="1263" type="line" smooth="yes"/>
      <point x="524" y="1263"/>
      <point x="531" y="1270"/>
      <point x="531" y="1278" type="curve" smooth="yes"/>
      <point x="531" y="1327" type="line" smooth="yes"/>
      <point x="531" y="1335"/>
      <point x="524" y="1342"/>
      <point x="516" y="1342" type="curve" smooth="yes"/>
      <point x="347" y="1342" type="line" smooth="yes"/>
      <point x="269" y="1342"/>
      <point x="227" y="1300"/>
      <point x="227" y="1222" type="curve" smooth="yes"/>
      <point x="227" y="701" type="line" smooth="yes"/>
      <point x="227" y="546"/>
      <point x="196" y="531"/>
      <point x="103" y="442" type="curve"/>
      <point x="98" y="438"/>
      <point x="99" y="431"/>
      <point x="103" y="426" type="curve"/>
      <point x="196" y="326"/>
      <point x="227" y="313"/>
      <point x="227" y="148" type="curve" smooth="yes"/>
      <point x="227" y="-354" type="line" smooth="yes"/>
      <point x="227" y="-432"/>
      <point x="269" y="-474"/>
      <point x="347" y="-474" type="curve" smooth="yes"/>
    </contour>
  </outline>
</glyph>
<glyph name="bar" format="1">
  <advance width="349"/>
  <unicode hex="007C"/>
  <outline>
    <contour>
      <point x="229" y="-472" type="line"/>
      <point x="229" y="1341" type="line"/>
      <point x="120" y="1341" type="line"/>
      <point x="120" y="-472" type="line"/>
    </contour>
  </outline>
</glyph>
<glyph name="asciitilde" format="1">
  <advance width="960"/>
  <unicode hex="007E"/>
  <outline>
    <contour>
      <point x="249" y="441"/>
      <point x="367" y="469"/>
      <point x="487" y="397" type="curve" smooth="yes"/>
      <point x="620" y="318"/>
      <point x="748" y="318"/>
      <point x="860" y="400" type="curve"/>
      <point x="812" y="472" type="line"/>
      <point x="711" y="416"/>
      <point x="615" y="415"/>
      <point x="475" y="492" type="curve" smooth="yes"/>
      <point x="370" y="551"/>
      <point x="210" y="535"/>
      <point x="100" y="445" type="curve"/>
      <point x="143" y="372" type="line"/>
    </contour>
  </outline>
</glyph>
<glyph name="degree" format="1">
  <advance width="600"/>
  <unicode hex="00B0"/>
  <outline>
    <contour>
      <point x="550" y="1181" type="curve" smooth="yes"/>
      <point x="550" y="1319"/>
      <point x="439" y="1431"/>
      <point x="300" y="1431" type="curve" smooth="yes"/>
      <point x="161" y="1431"/>
      <point x="50" y="1319"/>
      <point x="50" y="1181" type="curve" smooth="yes"/>
      <point x="50" y="1042"/>
      <point x="161" y="930"/>
      <point x="300" y="930" type="curve" smooth="yes"/>
      <point x="439" y="930"/>
      <point x="550" y="1042"/>
    </contour>
    <contour>
      <point x="124" y="1181" type="curve" smooth="yes"/>
      <point x="124" y="1277"/>
      <point x="203" y="1356"/>
      <point x="300" y="1356" type="curve" smooth="yes"/>
      <point x="398" y="1356"/>
      <point x="476" y="1277"/>
      <point x="476" y="1181" type="curve" smooth="yes"/>
      <point x="476" y="1084"/>
      <point x="398" y="1005"/>
      <point x="300" y="1005" type="curve" smooth="yes"/>
      <point x="203" y="1005"/>
      <point x="124" y="1084"/>
    </contour>
  </outline>
</glyph>
<glyph name="guillemetright" format="1">
  <advance width="722"/>
  <unicode hex="00BB"/>
  <outline>
    <contour>
      <point x="339" y="90" type="curve"/>
      <point x="394" y="-18" type="line" smooth="yes"/>
      <point x="398" y="-26"/>
      <point x="406" y="-29"/>
      <point x="415" y="-25" type="curve" smooth="yes"/>
      <point x="771" y="134"/>
      <point x="589" y="409"/>
      <point x="446" y="657" type="curve"/>
      <point x="441" y="665"/>
      <point x="434" y="667"/>
      <point x="426" y="664" type="curve"/>
      <point x="382" y="645" type="line" smooth="yes"/>
      <point x="373" y="641"/>
      <point x="371" y="634"/>
      <point x="376" y="625" type="curve" smooth="yes"/>
      <point x="520" y="351"/>
      <point x="604" y="221"/>
      <point x="359" y="120" type="curve"/>
      <point x="444" y="276"/>
      <point x="317" y="473"/>
      <point x="211" y="657" type="curve"/>
      <point x="206" y="665"/>
      <point x="199" y="667"/>
      <point x="191" y="664" type="curve"/>
      <point x="147" y="645" type="line" smooth="yes"/>
      <point x="138" y="641"/>
      <point x="136" y="634"/>
      <point x="141" y="625" type="curve" smooth="yes"/>
      <point x="288" y="346"/>
      <point x="373" y="217"/>
      <point x="110" y="115" type="curve"/>
      <point x="101" y="111"/>
      <point x="98" y="104"/>
      <point x="102" y="95" type="curve"/>
      <point x="159" y="-18" type="line" smooth="yes"/>
      <point x="163" y="-26"/>
      <point x="171" y="-29"/>
      <point x="180" y="-25" type="curve" smooth="yes"/>
      <point x="255" y="9"/>
      <point x="307" y="47"/>
    </contour>
  </outline>
</glyph>
<glyph name="caron" format="1">
  <advance width="546"/>
  <unicode hex="02C7"/>
  <outline>
    <contour>
      <point x="335" y="924" type="line"/>
      <point x="476" y="1298" type="line"/>
      <point x="422" y="1344" type="line"/>
      <point x="306" y="1038" type="line"/>
      <point x="265" y="1134"/>
      <point x="237" y="1196"/>
      <point x="214" y="1236" type="curve" smooth="yes"/>
      <point x="178" y="1300"/>
      <point x="135" y="1325"/>
      <point x="70" y="1268" type="curve"/>
      <point x="157" y="1160"/>
      <point x="207" y="1025"/>
      <point x="255" y="900" type="curve"/>
    </contour>
  </outline>
</glyph>
<glyph name="lowringmod" format="1">
  <advance width="597"/>
  <unicode hex="02F3"/>
  <outline>
    <contour>
      <point x="527" y="-189" type="curve" smooth="yes"/>
      <point x="527" y="-64"/>
      <point x="425" y="39"/>
      <point x="298" y="39" type="curve" smooth="yes"/>
      <point x="172" y="39"/>
      <point x="70" y="-64"/>
      <point x="70" y="-189" type="curve" smooth="yes"/>
      <point x="70" y="-316"/>
      <point x="172" y="-418"/>
      <point x="298" y="-418" type="curve" smooth="yes"/>
      <point x="425" y="-418"/>
      <point x="527" y="-316"/>
    </contour>
    <contour>
      <point x="139" y="-188" type="curve" smooth="yes"/>
      <point x="139" y="-101"/>
      <point x="210" y="-29"/>
      <point x="298" y="-29" type="curve" smooth="yes"/>
      <point x="387" y="-29"/>
      <point x="458" y="-101"/>
      <point x="458" y="-188" type="curve" smooth="yes"/>
      <point x="458" y="-277"/>
      <point x="387" y="-349"/>
      <point x="298" y="-349" type="curve" smooth="yes"/>
      <point x="210" y="-349"/>
      <point x="139" y="-277"/>
    </contour>
  </outline>
</glyph>
<glyph name="tahabove-ar" format="1">
  <advance width="0"/>
  <unicode hex="0615"/>
  <outline>
    <contour>
      <point x="139" y="1523"/>
      <point x="285" y="1525"/>
      <point x="356" y="1593" type="curve" smooth="yes"/>
      <point x="409" y="1645"/>
      <point x="346" y="1744"/>
      <point x="271" y="1744" type="curve" smooth="yes"/>
      <point x="224" y="1745"/>
      <point x="172" y="1708"/>
      <point x="123" y="1654" type="curve"/>
      <point x="131" y="1679"/>
      <point x="132" y="1706"/>
      <point x="131" y="1744" type="curve" smooth="yes"/>
      <point x="127" y="1886" type="line"/>
      <point x="84" y="1857" type="line"/>
      <point x="91" y="1744" type="line" smooth="yes"/>
      <point x="97" y="1653"/>
      <point x="96" y="1622"/>
      <point x="56" y="1581" type="curve"/>
      <point x="0" y="1586" type="line"/>
      <point x="14" y="1533"/>
      <point x="14" y="1533"/>
      <point x="53" y="1530" type="curve" smooth="yes"/>
    </contour>
    <contour>
      <point x="176" y="1672"/>
      <point x="206" y="1695"/>
      <point x="249" y="1695" type="curve" smooth="yes"/>
      <point x="310" y="1695"/>
      <point x="341" y="1641"/>
      <point x="345" y="1622" type="curve"/>
      <point x="271" y="1584"/>
      <point x="176" y="1575"/>
      <point x="87" y="1579" type="curve"/>
    </contour>
    <contour>
      <point x="187" y="2014" type="move" name="top"/>
    </contour>
    <contour>
      <point x="187" y="1523" type="move" name="_top"/>
    </contour>
  </outline>
</glyph>
<glyph name="theh-ar" format="1">
  <advance width="1586"/>
  <unicode hex="062B"/>
  <outline>
    <contour>
      <point x="773" y="-197" type="move" name="bottom"/>
    </contour>
    <component base="dotlessbeh-ar"/>
    <component base="threedotsupabove-ar" xOffset="500" yOffset="174"/>
  </outline>
</glyph>
<glyph name="dal-ar" format="1">
  <advance width="1003"/>
  <unicode hex="062F"/>
  <outline>
    <contour>
      <point x="447" y="-200" type="move" name="bottom"/>
    </contour>
    <contour>
      <point x="541" y="1007" type="move" name="top"/>
    </contour>
    <contour>
      <point x="818" y="46" type="curve" smooth="yes"/>
      <point x="864" y="79"/>
      <point x="883" y="134"/>
      <point x="883" y="199" type="curve" smooth="yes"/>
      <point x="885" y="374"/>
      <point x="819" y="481"/>
      <point x="581" y="848" type="curve" smooth="yes"/>
      <point x="576" y="856"/>
      <point x="566" y="856"/>
      <point x="563" y="852" type="curve"/>
      <point x="563" y="851"/>
      <point x="562" y="851"/>
      <point x="562" y="850" type="curve"/>
      <point x="482" y="727" type="line"/>
      <point x="478" y="720"/>
      <point x="478" y="713"/>
      <point x="483" y="705" type="curve"/>
      <point x="738" y="351"/>
      <point x="769" y="253"/>
      <point x="781" y="187" type="curve"/>
      <point x="652" y="142"/>
      <point x="484" y="108"/>
      <point x="332" y="126" type="curve" smooth="yes"/>
      <point x="265" y="134"/>
      <point x="258" y="159"/>
      <point x="253" y="268" type="curve"/>
      <point x="252" y="278"/>
      <point x="246" y="283"/>
      <point x="237" y="283" type="curve" smooth="yes"/>
      <point x="170" y="283" type="line" smooth="yes"/>
      <point x="161" y="283"/>
      <point x="156" y="278"/>
      <point x="155" y="269" type="curve" smooth="yes"/>
      <point x="141" y="104"/>
      <point x="136" y="-49"/>
      <point x="389" y="-49" type="curve" smooth="yes"/>
      <point x="509" y="-49"/>
      <point x="743" y="-8"/>
    </contour>
  </outline>
</glyph>
<glyph name="reh-ar" format="1">
  <advance width="794"/>
  <unicode hex="0631"/>
  <outline>
    <contour>
      <point x="533" y="-347"/>
      <point x="653" y="-146"/>
      <point x="672" y="40" type="curve" smooth="yes"/>
      <point x="684" y="161"/>
      <point x="622" y="393"/>
      <point x="577" y="584" type="curve" smooth="yes"/>
      <point x="574" y="595"/>
      <point x="565" y="596"/>
      <point x="557" y="588" type="curve" smooth="yes"/>
      <point x="467" y="497" type="line"/>
      <point x="462" y="491"/>
      <point x="460" y="485"/>
      <point x="462" y="477" type="curve" smooth="yes"/>
      <point x="586" y="41" type="line" smooth="yes"/>
      <point x="588" y="33"/>
      <point x="588" y="28"/>
      <point x="585" y="21" type="curve" smooth="yes"/>
      <point x="464" y="-253"/>
      <point x="302" y="-380"/>
      <point x="-35" y="-306" type="curve" smooth="yes"/>
      <point x="-44" y="-304"/>
      <point x="-50" y="-310"/>
      <point x="-53" y="-319" type="curve" smooth="yes"/>
      <point x="-73" y="-377" type="line"/>
      <point x="-75" y="-385"/>
      <point x="-71" y="-391"/>
      <point x="-62" y="-394" type="curve" smooth="yes"/>
      <point x="144" y="-463"/>
      <point x="288" y="-484"/>
      <point x="410" y="-416" type="curve" smooth="yes"/>
    </contour>
    <contour>
      <point x="485" y="840" type="move" name="top"/>
    </contour>
    <contour>
      <point x="260" y="-565" type="move" name="bottom"/>
    </contour>
  </outline>
</glyph>
<glyph name="sheen-ar" format="1">
  <advance width="2303"/>
  <unicode hex="0634"/>
  <outline>
    <contour>
      <point x="614" y="-612" type="move" name="bottom"/>
    </contour>
    <contour>
      <point x="645" y="620" type="move" name="top"/>
    </contour>
    <component base="seen-ar"/>
    <component base="threedotsupabove-ar" xOffset="1394" yOffset="136"/>
  </outline>
</glyph>
<glyph name="sad-ar" format="1">
  <advance width="2356"/>
  <unicode hex="0635"/>
  <outline>
    <contour>
      <point x="711" y="-462"/>
      <point x="1023" y="-371"/>
      <point x="1127" y="-236" type="curve" smooth="yes"/>
      <point x="1169" y="-181"/>
      <point x="1170" y="-128"/>
      <point x="1151" y="73" type="curve"/>
      <point x="1372" y="-63"/>
      <point x="1984" y="-31"/>
      <point x="2172" y="151" type="curve"/>
      <point x="2370" y="375"/>
      <point x="2066" y="677"/>
      <point x="1847" y="679" type="curve" smooth="yes"/>
      <point x="1693" y="680"/>
      <point x="1502" y="619"/>
      <point x="1178" y="221" type="curve"/>
      <point x="1119" y="271"/>
      <point x="1124" y="364"/>
      <point x="1106" y="502" type="curve" smooth="yes"/>
      <point x="1104" y="518"/>
      <point x="1089" y="523"/>
      <point x="1077" y="514" type="curve" smooth="yes"/>
      <point x="981" y="443" type="line" smooth="yes"/>
      <point x="977" y="440"/>
      <point x="975" y="435"/>
      <point x="976" y="430" type="curve"/>
      <point x="1057" y="-154" type="line" smooth="yes"/>
      <point x="1058" y="-160"/>
      <point x="1055" y="-167"/>
      <point x="1049" y="-169" type="curve"/>
      <point x="977" y="-203"/>
      <point x="808" y="-287"/>
      <point x="538" y="-287" type="curve" smooth="yes"/>
      <point x="332" y="-287"/>
      <point x="221" y="-189"/>
      <point x="265" y="53" type="curve" smooth="yes"/>
      <point x="295" y="218" type="line" smooth="yes"/>
      <point x="297" y="228"/>
      <point x="290" y="235"/>
      <point x="281" y="236" type="curve" smooth="yes"/>
      <point x="217" y="245" type="line" smooth="yes"/>
      <point x="209" y="246"/>
      <point x="202" y="242"/>
      <point x="200" y="233" type="curve"/>
      <point x="164" y="33" type="line" smooth="yes"/>
      <point x="118" y="-222"/>
      <point x="174" y="-462"/>
      <point x="514" y="-462" type="curve" smooth="yes"/>
    </contour>
    <contour>
      <point x="1497" y="470"/>
      <point x="1635" y="527"/>
      <point x="1777" y="527" type="curve" smooth="yes"/>
      <point x="1960" y="527"/>
      <point x="2099" y="353"/>
      <point x="2137" y="278" type="curve"/>
      <point x="2141" y="269"/>
      <point x="2139" y="263"/>
      <point x="2131" y="258" type="curve" smooth="yes"/>
      <point x="1894" y="116"/>
      <point x="1519" y="116"/>
      <point x="1262" y="187" type="curve"/>
    </contour>
    <contour>
      <point x="1818" y="839" type="move" name="top"/>
    </contour>
    <contour>
      <point x="605" y="-612" type="move" name="bottom"/>
    </contour>
  </outline>
</glyph>
<glyph name="dad-ar" format="1">
  <advance width="2356"/>
  <unicode hex="0636"/>
  <outline>
    <contour>
      <point x="615" y="-612" type="move" name="bottom"/>
    </contour>
    <contour>
      <point x="645" y="620" type="move" name="top"/>
    </contour>
    <component base="sad-ar"/>
    <component base="dotabove-ar" xOffset="1645" yOffset="142"/>
  </outline>
</glyph>
<glyph name="ain-ar" format="1">
  <advance width="1121"/>
  <unicode hex="0639"/>
  <outline>
    <contour>
      <point x="887" y="-631"/>
      <point x="1060" y="-607"/>
      <point x="1192" y="-577" type="curve"/>
      <point x="1206" y="-573"/>
      <point x="1210" y="-563"/>
      <point x="1216" y="-541" type="curve" smooth="yes"/>
      <point x="1244" y="-432" type="line" smooth="yes"/>
      <point x="1247" y="-421"/>
      <point x="1242" y="-415"/>
      <point x="1230" y="-417" type="curve" smooth="yes"/>
      <point x="926" y="-460"/>
      <point x="394" y="-509"/>
      <point x="312" y="-181" type="curve"/>
      <point x="305" y="-143"/>
      <point x="304" y="-127"/>
      <point x="308" y="-96" type="curve" smooth="yes"/>
      <point x="347" y="203"/>
      <point x="685" y="361"/>
      <point x="976" y="445" type="curve"/>
      <point x="984" y="448"/>
      <point x="987" y="454"/>
      <point x="988" y="462" type="curve"/>
      <point x="1000" y="598" type="line" smooth="yes"/>
      <point x="1001" y="610"/>
      <point x="993" y="614"/>
      <point x="983" y="611" type="curve" smooth="yes"/>
      <point x="819" y="561"/>
      <point x="703" y="508"/>
      <point x="556" y="438" type="curve" smooth="yes"/>
      <point x="525" y="423"/>
      <point x="498" y="420"/>
      <point x="472" y="445" type="curve"/>
      <point x="363" y="534"/>
      <point x="278" y="644"/>
      <point x="263" y="766" type="curve"/>
      <point x="263" y="774"/>
      <point x="264" y="778"/>
      <point x="270" y="785" type="curve"/>
      <point x="389" y="899"/>
      <point x="545" y="925"/>
      <point x="761" y="855" type="curve" smooth="yes"/>
      <point x="771" y="852"/>
      <point x="781" y="858"/>
      <point x="778" y="868" type="curve"/>
      <point x="750" y="978" type="line" smooth="yes"/>
      <point x="748" y="987"/>
      <point x="748" y="991"/>
      <point x="739" y="995" type="curve"/>
      <point x="471" y="1127"/>
      <point x="139" y="994"/>
      <point x="150" y="712" type="curve"/>
      <point x="161" y="566"/>
      <point x="246" y="444"/>
      <point x="391" y="314" type="curve"/>
      <point x="284" y="190"/>
      <point x="214" y="33"/>
      <point x="211" y="-135" type="curve" smooth="yes"/>
      <point x="206" y="-528"/>
      <point x="457" y="-638"/>
      <point x="772" y="-633" type="curve" smooth="yes"/>
    </contour>
    <contour>
      <point x="515" y="1200" type="move" name="top"/>
    </contour>
    <contour>
      <point x="742" y="-783" type="move" name="bottom"/>
    </contour>
  </outline>
</glyph>
<glyph name="kashida-ar" format="1">
  <advance width="582"/>
  <unicode hex="0640"/>
  <outline>
    <contour>
      <point x="582" y="0" type="line"/>
      <point x="624" y="52"/>
      <point x="624" y="104"/>
      <point x="582" y="156" type="curve"/>
      <point x="0" y="156" type="line" smooth="yes"/>
      <point x="-103" y="156"/>
      <point x="-103" y="0"/>
      <point x="0" y="0" type="curve" smooth="yes"/>
    </contour>
  </outline>
</glyph>
<glyph name="qaf-ar" format="1">
  <advance width="1418"/>
  <unicode hex="0642"/>
  <outline>
    <contour>
      <point x="666" y="-610" type="move" name="bottom"/>
    </contour>
    <component base="dotlessqaf-ar"/>
    <component base="twodotshorizontalabove-ar" xOffset="729" yOffset="87"/>
  </outline>
</glyph>
<glyph name="lam-ar" format="1">
  <advance width="1254"/>
  <unicode hex="0644"/>
  <outline>
    <contour>
      <point x="730" y="-456"/>
      <point x="1128" y="-376"/>
      <point x="1134" y="-131" type="curve"/>
      <point x="1099" y="1340" type="line"/>
      <point x="1099" y="1353"/>
      <point x="1090" y="1355"/>
      <point x="1080" y="1348" type="curve"/>
      <point x="958" y="1256" type="line"/>
      <point x="952" y="1251"/>
      <point x="950" y="1245"/>
      <point x="950" y="1237" type="curve"/>
      <point x="1025" y="-190" type="line"/>
      <point x="1025" y="-190"/>
      <point x="787" y="-287"/>
      <point x="525" y="-287" type="curve" smooth="yes"/>
      <point x="345" y="-287"/>
      <point x="209" y="-190"/>
      <point x="268" y="25" type="curve"/>
      <point x="329" y="289" type="line" smooth="yes"/>
      <point x="331" y="298"/>
      <point x="326" y="305"/>
      <point x="317" y="307" type="curve" smooth="yes"/>
      <point x="256" y="321" type="line" smooth="yes"/>
      <point x="247" y="323"/>
      <point x="240" y="320"/>
      <point x="238" y="310" type="curve"/>
      <point x="174" y="41" type="line"/>
      <point x="111" y="-185"/>
      <point x="156" y="-456"/>
      <point x="490" y="-456" type="curve" smooth="yes"/>
    </contour>
    <contour>
      <point x="1023" y="1495" type="move" name="top"/>
    </contour>
    <contour>
      <point x="611" y="-606" type="move" name="bottom"/>
    </contour>
  </outline>
</glyph>
<glyph name="meem-ar" format="1">
  <advance width="1088"/>
  <unicode hex="0645"/>
  <outline>
    <contour>
      <point x="259" y="-832" type="move" name="bottom"/>
    </contour>
    <contour>
      <point x="555" y="918" type="move" name="top"/>
    </contour>
    <contour>
      <point x="318" y="-634" type="line" smooth="yes"/>
      <point x="327" y="-630"/>
      <point x="329" y="-624"/>
      <point x="328" y="-616" type="curve" smooth="yes"/>
      <point x="248" y="30" type="line" smooth="yes"/>
      <point x="246" y="48"/>
      <point x="253" y="60"/>
      <point x="270" y="66" type="curve" smooth="yes"/>
      <point x="455" y="129"/>
      <point x="697" y="138"/>
      <point x="899" y="120" type="curve" smooth="yes"/>
      <point x="917" y="118"/>
      <point x="928" y="128"/>
      <point x="932" y="146" type="curve"/>
      <point x="964" y="291" type="line"/>
      <point x="967" y="304"/>
      <point x="969" y="314"/>
      <point x="968" y="327" type="curve"/>
      <point x="967" y="369"/>
      <point x="953" y="415"/>
      <point x="931" y="459" type="curve" smooth="yes"/>
      <point x="852" y="617"/>
      <point x="666" y="767"/>
      <point x="553" y="767" type="curve" smooth="yes"/>
      <point x="353" y="767"/>
      <point x="296" y="549"/>
      <point x="295" y="395" type="curve" smooth="yes"/>
      <point x="294" y="217" type="line"/>
      <point x="211" y="172"/>
      <point x="138" y="82"/>
      <point x="152" y="-119" type="curve" smooth="yes"/>
      <point x="187" y="-670" type="line" smooth="yes"/>
      <point x="188" y="-681"/>
      <point x="195" y="-685"/>
      <point x="205" y="-681" type="curve" smooth="yes"/>
    </contour>
    <contour>
      <point x="407" y="281" type="curve" smooth="yes"/>
      <point x="379" y="377" type="line" smooth="yes"/>
      <point x="375" y="392"/>
      <point x="375" y="402"/>
      <point x="380" y="416" type="curve" smooth="yes"/>
      <point x="406" y="494"/>
      <point x="451" y="596"/>
      <point x="535" y="596" type="curve" smooth="yes"/>
      <point x="658" y="596"/>
      <point x="800" y="446"/>
      <point x="882" y="275" type="curve"/>
      <point x="728" y="287"/>
      <point x="581" y="285"/>
      <point x="443" y="259" type="curve" smooth="yes"/>
      <point x="425" y="255"/>
      <point x="412" y="262"/>
    </contour>
  </outline>
</glyph>
<glyph name="yeh-ar" format="1">
  <advance width="1417"/>
  <unicode hex="064A"/>
  <outline>
    <component base="alefMaksura-ar"/>
    <component base="twodotshorizontalbelow-ar" xOffset="391" yOffset="-537"/>
    <contour>
      <point x="487" y="512" type="move" name="top"/>
    </contour>
  </outline>
</glyph>
<glyph name="fatha-ar" format="1">
  <advance width="0"/>
  <unicode hex="064E"/>
  <outline>
    <contour>
      <point x="225" y="1130" type="move" name="_top"/>
    </contour>
    <contour>
      <point x="225" y="1489" type="move" name="top"/>
    </contour>
    <contour>
      <point x="450" y="1264" type="line"/>
      <point x="450" y="1358" type="line"/>
      <point x="0" y="1203" type="line"/>
      <point x="0" y="1110" type="line"/>
    </contour>
  </outline>
</glyph>
<glyph name="damma-ar" format="1">
  <advance width="0"/>
  <unicode hex="064F"/>
  <outline>
    <contour>
      <point x="157" y="756" type="move" name="_top"/>
    </contour>
    <contour>
      <point x="157" y="1439" type="move" name="top"/>
    </contour>
    <contour>
      <point x="234" y="980" type="curve"/>
      <point x="327" y="997" type="line"/>
      <point x="340" y="1065" type="line"/>
      <point x="243" y="1055" type="line"/>
      <point x="260" y="1155"/>
      <point x="229" y="1295"/>
      <point x="137" y="1295" type="curve" smooth="yes"/>
      <point x="60" y="1295"/>
      <point x="7" y="1175"/>
      <point x="1" y="1107" type="curve" smooth="yes"/>
      <point x="-8" y="1023"/>
      <point x="39" y="955"/>
      <point x="165" y="974" type="curve"/>
      <point x="134" y="931"/>
      <point x="32" y="796"/>
      <point x="2" y="763" type="curve"/>
      <point x="62" y="735" type="line"/>
      <point x="105" y="773"/>
      <point x="198" y="920"/>
    </contour>
    <contour>
      <point x="49" y="1095" type="curve" smooth="yes"/>
      <point x="49" y="1150"/>
      <point x="78" y="1207"/>
      <point x="121" y="1207" type="curve" smooth="yes"/>
      <point x="176" y="1207"/>
      <point x="204" y="1093"/>
      <point x="189" y="1049" type="curve"/>
      <point x="124" y="1048"/>
      <point x="49" y="1057"/>
    </contour>
  </outline>
</glyph>
<glyph name="shadda-ar" format="1">
  <advance width="0"/>
  <unicode hex="0651"/>
  <outline>
    <contour>
      <point x="146" y="931"/>
      <point x="228" y="944"/>
      <point x="277" y="981" type="curve"/>
      <point x="344" y="924"/>
      <point x="448" y="942"/>
      <point x="527" y="980" type="curve"/>
      <point x="534" y="983"/>
      <point x="538" y="988"/>
      <point x="539" y="997" type="curve"/>
      <point x="562" y="1122"/>
      <point x="552" y="1174"/>
      <point x="543" y="1209" type="curve" smooth="yes"/>
      <point x="536" y="1239"/>
      <point x="528" y="1276"/>
      <point x="522" y="1307" type="curve" smooth="yes"/>
      <point x="520" y="1319"/>
      <point x="511" y="1322"/>
      <point x="502" y="1315" type="curve"/>
      <point x="465" y="1289" type="line" smooth="yes"/>
      <point x="458" y="1284"/>
      <point x="455" y="1279"/>
      <point x="457" y="1270" type="curve"/>
      <point x="509" y="1074" type="line"/>
      <point x="452" y="1053"/>
      <point x="391" y="1033"/>
      <point x="308" y="1064" type="curve"/>
      <point x="302" y="1230" type="line"/>
      <point x="302" y="1239"/>
      <point x="296" y="1245"/>
      <point x="287" y="1245" type="curve" smooth="yes"/>
      <point x="267" y="1245" type="line" smooth="yes"/>
      <point x="258" y="1245"/>
      <point x="252" y="1239"/>
      <point x="252" y="1230" type="curve" smooth="yes"/>
      <point x="247" y="1063" type="line"/>
      <point x="192" y="1044"/>
      <point x="138" y="1031"/>
      <point x="53" y="1059" type="curve"/>
      <point x="71" y="1253" type="line" smooth="yes"/>
      <point x="72" y="1262"/>
      <point x="66" y="1269"/>
      <point x="57" y="1270" type="curve" smooth="yes"/>
      <point x="37" y="1272" type="line" smooth="yes"/>
      <point x="28" y="1273"/>
      <point x="21" y="1267"/>
      <point x="20" y="1258" type="curve" smooth="yes"/>
      <point x="2" y="1093" type="line" smooth="yes"/>
      <point x="-7" y="1027"/>
      <point x="13" y="963"/>
      <point x="75" y="948" type="curve" smooth="yes"/>
    </contour>
    <contour>
      <point x="285" y="1403" type="move" name="top"/>
    </contour>
    <contour>
      <point x="285" y="943" type="move" name="_top"/>
    </contour>
  </outline>
</glyph>
<glyph name="madda-ar" format="1">
  <advance width="0"/>
  <unicode hex="0653"/>
  <outline>
    <contour>
      <point x="64" y="1297"/>
      <point x="71" y="1299"/>
      <point x="75" y="1307" type="curve" smooth="yes"/>
      <point x="118" y="1391" type="line"/>
      <point x="264" y="1344"/>
      <point x="474" y="1347"/>
      <point x="588" y="1396" type="curve"/>
      <point x="594" y="1399"/>
      <point x="598" y="1403"/>
      <point x="600" y="1411" type="curve"/>
      <point x="633" y="1517" type="line" smooth="yes"/>
      <point x="636" y="1526"/>
      <point x="632" y="1535"/>
      <point x="616" y="1529" type="curve" smooth="yes"/>
      <point x="484" y="1477"/>
      <point x="291" y="1492"/>
      <point x="174" y="1528" type="curve" smooth="yes"/>
      <point x="133" y="1541"/>
      <point x="83" y="1546"/>
      <point x="3" y="1385" type="curve" smooth="yes"/>
      <point x="-2" y="1375"/>
      <point x="-1" y="1364"/>
      <point x="5" y="1358" type="curve" smooth="yes"/>
      <point x="58" y="1303" type="line" smooth="yes"/>
    </contour>
    <contour>
      <point x="311" y="1668" type="move" name="top"/>
    </contour>
    <contour>
      <point x="311" y="1308" type="move" name="_top"/>
    </contour>
  </outline>
</glyph>
<glyph name="alefbelow-ar" format="1">
  <advance width="0"/>
  <unicode hex="0656"/>
  <outline>
    <contour>
      <point x="50" y="-111" type="move" name="_bottom"/>
    </contour>
    <contour>
      <point x="50" y="-666" type="move" name="bottom"/>
    </contour>
    <component base="alefabove-ar" yOffset="-1439"/>
  </outline>
</glyph>
<glyph name="noonghunnaabove-ar" format="1">
  <advance width="0"/>
  <unicode hex="0658"/>
  <outline>
    <contour>
      <point x="208" y="1356"/>
      <point x="346" y="1385"/>
      <point x="349" y="1469" type="curve"/>
      <point x="349" y="1511"/>
      <point x="335" y="1610"/>
      <point x="329" y="1654" type="curve" smooth="yes"/>
      <point x="327" y="1667"/>
      <point x="318" y="1670"/>
      <point x="308" y="1664" type="curve"/>
      <point x="287" y="1649" type="line" smooth="yes"/>
      <point x="280" y="1644"/>
      <point x="278" y="1637"/>
      <point x="279" y="1629" type="curve"/>
      <point x="309" y="1461" type="line" smooth="yes"/>
      <point x="311" y="1450"/>
      <point x="306" y="1443"/>
      <point x="296" y="1441" type="curve"/>
      <point x="268" y="1432"/>
      <point x="201" y="1416"/>
      <point x="134" y="1416" type="curve" smooth="yes"/>
      <point x="66" y="1416"/>
      <point x="25" y="1450"/>
      <point x="40" y="1533" type="curve" smooth="yes"/>
      <point x="47" y="1571" type="line"/>
      <point x="50" y="1581"/>
      <point x="45" y="1588"/>
      <point x="35" y="1591" type="curve"/>
      <point x="26" y="1593"/>
      <point x="18" y="1587"/>
      <point x="16" y="1577" type="curve" smooth="yes"/>
      <point x="5" y="1525" type="line" smooth="yes"/>
      <point x="-13" y="1439"/>
      <point x="16" y="1356"/>
      <point x="126" y="1356" type="curve" smooth="yes"/>
    </contour>
    <contour>
      <point x="174" y="1745" type="move" name="top"/>
    </contour>
    <contour>
      <point x="174" y="1356" type="move" name="_top"/>
    </contour>
  </outline>
</glyph>
<glyph name="vabove-ar" format="1">
  <advance width="0"/>
  <unicode hex="065A"/>
  <outline>
    <contour>
      <point x="198" y="904" type="move" name="_top"/>
    </contour>
    <contour>
      <point x="203" y="1444" type="move" name="top"/>
    </contour>
    <contour>
      <point x="254" y="921" type="line" smooth="yes"/>
      <point x="261" y="923"/>
      <point x="266" y="926"/>
      <point x="269" y="934" type="curve" smooth="yes"/>
      <point x="411" y="1286" type="line"/>
      <point x="414" y="1295"/>
      <point x="414" y="1305"/>
      <point x="406" y="1306" type="curve" smooth="yes"/>
      <point x="364" y="1311" type="line"/>
      <point x="352" y="1312"/>
      <point x="347" y="1314"/>
      <point x="343" y="1303" type="curve" smooth="yes"/>
      <point x="246" y="1061" type="line" smooth="yes"/>
      <point x="231" y="1024"/>
      <point x="226" y="1028"/>
      <point x="212" y="1060" type="curve" smooth="yes"/>
      <point x="131" y="1235" type="line"/>
      <point x="88" y="1315"/>
      <point x="96" y="1312"/>
      <point x="17" y="1276" type="curve" smooth="yes"/>
      <point x="8" y="1272"/>
      <point x="7" y="1264"/>
      <point x="12" y="1255" type="curve"/>
      <point x="179" y="913" type="line"/>
      <point x="183" y="904"/>
      <point x="189" y="901"/>
      <point x="198" y="904" type="curve" smooth="yes"/>
    </contour>
  </outline>
</glyph>
<glyph name="vinvertedabove-ar" format="1">
  <advance width="0"/>
  <unicode hex="065B"/>
  <outline>
    <contour>
      <point x="201" y="1019" type="move" name="_top"/>
    </contour>
    <contour>
      <point x="201" y="1600" type="move" name="top"/>
    </contour>
    <contour>
      <point x="115" y="1112" type="curve"/>
      <point x="170" y="1299" type="line"/>
      <point x="178" y="1333"/>
      <point x="188" y="1338"/>
      <point x="208" y="1304" type="curve" smooth="yes"/>
      <point x="351" y="1061" type="line" smooth="yes"/>
      <point x="357" y="1050"/>
      <point x="366" y="1051"/>
      <point x="373" y="1059" type="curve"/>
      <point x="398" y="1090" type="line" smooth="yes"/>
      <point x="403" y="1096"/>
      <point x="404" y="1102"/>
      <point x="399" y="1111" type="curve" smooth="yes"/>
      <point x="208" y="1433" type="line" smooth="yes"/>
      <point x="204" y="1440"/>
      <point x="199" y="1442"/>
      <point x="191" y="1443" type="curve" smooth="yes"/>
      <point x="133" y="1450" type="line" smooth="yes"/>
      <point x="124" y="1451"/>
      <point x="118" y="1447"/>
      <point x="116" y="1438" type="curve"/>
      <point x="78" y="1302"/>
      <point x="45" y="1205"/>
      <point x="1" y="1072" type="curve" smooth="yes"/>
      <point x="-2" y="1062"/>
      <point x="0" y="1055"/>
      <point x="10" y="1052" type="curve"/>
      <point x="94" y="1030"/>
      <point x="86" y="1026"/>
    </contour>
  </outline>
</glyph>
<glyph name="zero-ar" format="1">
  <advance width="767"/>
  <unicode hex="0660"/>
  <outline>
    <contour>
      <point x="372" y="130"/>
      <point x="400" y="129"/>
      <point x="425" y="154" type="curve" smooth="yes"/>
      <point x="648" y="383" type="line" smooth="yes"/>
      <point x="673" y="409"/>
      <point x="674" y="435"/>
      <point x="648" y="461" type="curve" smooth="yes"/>
      <point x="425" y="682" type="line" smooth="yes"/>
      <point x="400" y="708"/>
      <point x="373" y="708"/>
      <point x="347" y="683" type="curve" smooth="yes"/>
      <point x="119" y="461" type="line" smooth="yes"/>
      <point x="93" y="435"/>
      <point x="94" y="408"/>
      <point x="119" y="383" type="curve" smooth="yes"/>
      <point x="347" y="154" type="line" smooth="yes"/>
    </contour>
    <contour>
      <point x="235" y="422" type="line"/>
      <point x="386" y="569" type="line"/>
      <point x="533" y="422" type="line"/>
      <point x="386" y="271" type="line"/>
    </contour>
  </outline>
</glyph>
<glyph name="one-ar" format="1">
  <advance width="493"/>
  <unicode hex="0661"/>
  <outline>
    <contour>
      <point x="380" y="-3" type="line" smooth="yes"/>
      <point x="388" y="-1"/>
      <point x="393" y="5"/>
      <point x="393" y="14" type="curve"/>
      <point x="389" y="510"/>
      <point x="375" y="802"/>
      <point x="226" y="1097" type="curve"/>
      <point x="221" y="1108"/>
      <point x="212" y="1109"/>
      <point x="205" y="1099" type="curve" smooth="yes"/>
      <point x="104" y="960" type="line" smooth="yes"/>
      <point x="99" y="953"/>
      <point x="99" y="947"/>
      <point x="103" y="939" type="curve"/>
      <point x="291" y="600"/>
      <point x="293" y="232"/>
      <point x="297" y="-6" type="curve" smooth="yes"/>
      <point x="297" y="-17"/>
      <point x="302" y="-22"/>
      <point x="313" y="-19" type="curve" smooth="yes"/>
    </contour>
  </outline>
</glyph>
<glyph name="two-ar" format="1">
  <advance width="858"/>
  <unicode hex="0662"/>
  <outline>
    <contour>
      <point x="380" y="-3" type="line" smooth="yes"/>
      <point x="388" y="-1"/>
      <point x="393" y="4"/>
      <point x="393" y="13" type="curve" smooth="yes"/>
      <point x="399" y="226"/>
      <point x="389" y="457"/>
      <point x="351" y="701" type="curve" smooth="yes"/>
      <point x="349" y="712"/>
      <point x="355" y="717"/>
      <point x="366" y="715" type="curve" smooth="yes"/>
      <point x="596" y="673"/>
      <point x="749" y="785"/>
      <point x="758" y="1098" type="curve" smooth="yes"/>
      <point x="758" y="1109"/>
      <point x="752" y="1111"/>
      <point x="742" y="1113" type="curve" smooth="yes"/>
      <point x="675" y="1125" type="line"/>
      <point x="666" y="1127"/>
      <point x="661" y="1118"/>
      <point x="660" y="1109" type="curve"/>
      <point x="648" y="904"/>
      <point x="501" y="870"/>
      <point x="354" y="910" type="curve" smooth="yes"/>
      <point x="347" y="912"/>
      <point x="342" y="915"/>
      <point x="337" y="920" type="curve"/>
      <point x="305" y="956"/>
      <point x="266" y="1026"/>
      <point x="226" y="1098" type="curve"/>
      <point x="221" y="1108"/>
      <point x="212" y="1109"/>
      <point x="205" y="1099" type="curve" smooth="yes"/>
      <point x="104" y="960" type="line" smooth="yes"/>
      <point x="99" y="953"/>
      <point x="99" y="947"/>
      <point x="103" y="939" type="curve"/>
      <point x="291" y="600"/>
      <point x="293" y="232"/>
      <point x="297" y="-6" type="curve" smooth="yes"/>
      <point x="297" y="-17"/>
      <point x="302" y="-22"/>
      <point x="313" y="-19" type="curve" smooth="yes"/>
    </contour>
  </outline>
</glyph>
<glyph name="three-ar" format="1">
  <advance width="1089"/>
  <unicode hex="0663"/>
  <outline>
    <contour>
      <point x="380" y="-3" type="line" smooth="yes"/>
      <point x="388" y="-1"/>
      <point x="393" y="5"/>
      <point x="393" y="14" type="curve"/>
      <point x="390" y="306"/>
      <point x="401" y="414"/>
      <point x="348" y="719" type="curve"/>
      <point x="469" y="692"/>
      <point x="567" y="718"/>
      <point x="619" y="790" type="curve"/>
      <point x="798" y="665"/>
      <point x="994" y="781"/>
      <point x="989" y="1005" type="curve" smooth="yes"/>
      <point x="986" y="1134" type="line"/>
      <point x="986" y="1144"/>
      <point x="981" y="1148"/>
      <point x="972" y="1149" type="curve" smooth="yes"/>
      <point x="919" y="1155" type="line" smooth="yes"/>
      <point x="909" y="1156"/>
      <point x="903" y="1151"/>
      <point x="903" y="1141" type="curve" smooth="yes"/>
      <point x="903" y="942"/>
      <point x="854" y="867"/>
      <point x="658" y="921" type="curve"/>
      <point x="662" y="1133" type="line" smooth="yes"/>
      <point x="662" y="1142"/>
      <point x="656" y="1148"/>
      <point x="647" y="1148" type="curve"/>
      <point x="594" y="1150" type="line"/>
      <point x="585" y="1150"/>
      <point x="579" y="1145"/>
      <point x="579" y="1134" type="curve" smooth="yes"/>
      <point x="575" y="976"/>
      <point x="562" y="891"/>
      <point x="443" y="888" type="curve" smooth="yes"/>
      <point x="309" y="883"/>
      <point x="283" y="964"/>
      <point x="226" y="1098" type="curve" smooth="yes"/>
      <point x="222" y="1108"/>
      <point x="212" y="1109"/>
      <point x="205" y="1099" type="curve" smooth="yes"/>
      <point x="104" y="960" type="line" smooth="yes"/>
      <point x="99" y="953"/>
      <point x="99" y="947"/>
      <point x="103" y="939" type="curve"/>
      <point x="291" y="600"/>
      <point x="293" y="232"/>
      <point x="297" y="-6" type="curve" smooth="yes"/>
      <point x="297" y="-17"/>
      <point x="302" y="-22"/>
      <point x="313" y="-19" type="curve" smooth="yes"/>
    </contour>
  </outline>
</glyph>
<glyph name="decimalseparator-ar" format="1">
  <advance width="656"/>
  <unicode hex="066B"/>
  <outline>
    <contour>
      <point x="184" y="-350" type="curve"/>
      <point x="555" y="615" type="line" smooth="yes"/>
      <point x="559" y="625"/>
      <point x="553" y="637"/>
      <point x="542" y="638" type="curve" smooth="yes"/>
      <point x="489" y="644" type="line"/>
      <point x="483" y="645"/>
      <point x="476" y="641"/>
      <point x="474" y="635" type="curve"/>
      <point x="101" y="-330" type="line" smooth="yes"/>
      <point x="97" y="-341"/>
      <point x="103" y="-352"/>
      <point x="114" y="-353" type="curve" smooth="yes"/>
      <point x="169" y="-359" type="line"/>
      <point x="175" y="-360"/>
      <point x="182" y="-356"/>
    </contour>
  </outline>
</glyph>
<glyph name="dotlessqaf-ar" format="1">
  <advance width="1418"/>
  <unicode hex="066F"/>
  <outline>
    <contour>
      <point x="666" y="-610" type="move" name="bottom"/>
    </contour>
    <contour>
      <point x="965" y="847" type="move" name="top"/>
    </contour>
    <contour>
      <point x="1243" y="-234" type="curve" smooth="yes"/>
      <point x="1290" y="-166"/>
      <point x="1294" y="-72"/>
      <point x="1298" y="50" type="curve" smooth="yes"/>
      <point x="1307" y="336"/>
      <point x="1165" y="697"/>
      <point x="964" y="697" type="curve" smooth="yes"/>
      <point x="763" y="697"/>
      <point x="645" y="410"/>
      <point x="645" y="204" type="curve" smooth="yes"/>
      <point x="645" y="-109"/>
      <point x="986" y="-72"/>
      <point x="1168" y="21" type="curve"/>
      <point x="1178" y="27"/>
      <point x="1186" y="22"/>
      <point x="1185" y="10" type="curve"/>
      <point x="1177" y="-165" type="line"/>
      <point x="1177" y="-173"/>
      <point x="1172" y="-178"/>
      <point x="1164" y="-181" type="curve" smooth="yes"/>
      <point x="1107" y="-202"/>
      <point x="857" y="-285"/>
      <point x="557" y="-285" type="curve" smooth="yes"/>
      <point x="379" y="-285"/>
      <point x="246" y="-203"/>
      <point x="256" y="-7" type="curve" smooth="yes"/>
      <point x="257" y="12"/>
      <point x="260" y="32"/>
      <point x="298" y="239" type="curve" smooth="yes"/>
      <point x="300" y="249"/>
      <point x="295" y="256"/>
      <point x="286" y="258" type="curve" smooth="yes"/>
      <point x="218" y="272" type="line" smooth="yes"/>
      <point x="209" y="274"/>
      <point x="202" y="269"/>
      <point x="200" y="260" type="curve"/>
      <point x="163" y="35" type="line"/>
      <point x="112" y="-219"/>
      <point x="213" y="-460"/>
      <point x="533" y="-460" type="curve" smooth="yes"/>
      <point x="708" y="-460"/>
      <point x="1126" y="-405"/>
    </contour>
    <contour>
      <point x="763" y="154" type="curve"/>
      <point x="756" y="158"/>
      <point x="753" y="163"/>
      <point x="752" y="171" type="curve"/>
      <point x="743" y="322"/>
      <point x="799" y="531"/>
      <point x="929" y="531" type="curve" smooth="yes"/>
      <point x="1043" y="531"/>
      <point x="1162" y="344"/>
      <point x="1177" y="164" type="curve" smooth="yes"/>
      <point x="1178" y="155"/>
      <point x="1173" y="149"/>
      <point x="1164" y="147" type="curve" smooth="yes"/>
      <point x="1022" y="114"/>
      <point x="880" y="101"/>
    </contour>
  </outline>
</glyph>
<glyph name="alefabove-ar" format="1">
  <advance width="0"/>
  <unicode hex="0670"/>
  <outline>
    <contour>
      <point x="50" y="910" type="move" name="_top"/>
    </contour>
    <contour>
      <point x="50" y="1481" type="move" name="top"/>
    </contour>
    <contour>
      <point x="96" y="962" type="line"/>
      <point x="98" y="963"/>
      <point x="99" y="966"/>
      <point x="99" y="968" type="curve"/>
      <point x="97" y="1326" type="line"/>
      <point x="97" y="1330"/>
      <point x="94" y="1332"/>
      <point x="91" y="1330" type="curve"/>
      <point x="4" y="1280" type="line"/>
      <point x="1" y="1278"/>
      <point x="0" y="1276"/>
      <point x="0" y="1274" type="curve"/>
      <point x="23" y="915" type="line"/>
      <point x="23" y="911"/>
      <point x="25" y="909"/>
      <point x="29" y="912" type="curve" smooth="yes"/>
    </contour>
  </outline>
</glyph>
<glyph name="highhamza-ar" format="1">
  <advance width="0"/>
  <unicode hex="0674"/>
  <outline>
    <contour>
      <point x="246" y="315" type="move" name="bottom"/>
    </contour>
    <contour>
      <point x="246" y="1183" type="move" name="top"/>
    </contour>
    <component base="hamzacenter-ar" xOffset="-3"/>
  </outline>
</glyph>
<glyph name="jeh-ar" format="1">
  <advance width="794"/>
  <unicode hex="0698"/>
  <outline>
    <contour>
      <point x="260" y="-565" type="move" name="bottom"/>
    </contour>
    <component base="reh-ar"/>
    <component base="threedotsupabove-ar" xOffset="258" yOffset="265"/>
  </outline>
</glyph>
<glyph name="veh-ar" format="1">
  <advance width="1605"/>
  <unicode hex="06A4"/>
  <outline>
    <contour>
      <point x="737" y="-188" type="move" name="bottom"/>
    </contour>
    <component base="dotlessfeh-ar"/>
    <component base="threedotsupabove-ar" xOffset="947" yOffset="549"/>
  </outline>
</glyph>
<glyph name="keheh-ar" format="1">
  <advance width="1481"/>
  <unicode hex="06A9"/>
  <outline>
    <contour>
      <point x="891" y="-34"/>
      <point x="1173" y="40"/>
      <point x="1299" y="96" type="curve"/>
      <point x="1302" y="97"/>
      <point x="1304" y="101"/>
      <point x="1307" y="108" type="curve" smooth="yes"/>
      <point x="1338" y="176"/>
      <point x="1367" y="274"/>
      <point x="1360" y="324" type="curve" smooth="yes"/>
      <point x="1326" y="563"/>
      <point x="1081" y="828"/>
      <point x="908" y="920" type="curve"/>
      <point x="896" y="927"/>
      <point x="898" y="936"/>
      <point x="910" y="940" type="curve" smooth="yes"/>
      <point x="1480" y="1119" type="line"/>
      <point x="1488" y="1121"/>
      <point x="1493" y="1126"/>
      <point x="1494" y="1135" type="curve" smooth="yes"/>
      <point x="1510" y="1261" type="line"/>
      <point x="1511" y="1272"/>
      <point x="1505" y="1279"/>
      <point x="1494" y="1275" type="curve" smooth="yes"/>
      <point x="898" y="1075" type="line"/>
      <point x="890" y="1072"/>
      <point x="886" y="1069"/>
      <point x="883" y="1062" type="curve"/>
      <point x="778" y="843" type="line" smooth="yes"/>
      <point x="774" y="835"/>
      <point x="777" y="828"/>
      <point x="785" y="823" type="curve"/>
      <point x="1114" y="645"/>
      <point x="1245" y="391"/>
      <point x="1285" y="255" type="curve"/>
      <point x="1288" y="246"/>
      <point x="1285" y="240"/>
      <point x="1276" y="237" type="curve"/>
      <point x="1170" y="194"/>
      <point x="928" y="130"/>
      <point x="652" y="135" type="curve" smooth="yes"/>
      <point x="417" y="139"/>
      <point x="224" y="204"/>
      <point x="243" y="405" type="curve" smooth="yes"/>
      <point x="255" y="528" type="line" smooth="yes"/>
      <point x="256" y="537"/>
      <point x="250" y="543"/>
      <point x="241" y="544" type="curve" smooth="yes"/>
      <point x="186" y="549" type="line" smooth="yes"/>
      <point x="177" y="550"/>
      <point x="170" y="544"/>
      <point x="169" y="535" type="curve" smooth="yes"/>
      <point x="155" y="405" type="line" smooth="yes"/>
      <point x="121" y="102"/>
      <point x="262" y="-17"/>
      <point x="579" y="-26" type="curve" smooth="yes"/>
    </contour>
    <contour>
      <point x="1200" y="1417" type="move" name="top"/>
    </contour>
    <contour>
      <point x="683" y="-176" type="move" name="bottom"/>
    </contour>
  </outline>
</glyph>
<glyph name="noonghunna-ar" format="1">
  <advance width="1284"/>
  <unicode hex="06BA"/>
  <outline>
    <contour>
      <point x="621" y="-612" type="move" name="bottom"/>
    </contour>
    <contour>
      <point x="597" y="367" type="move" name="top"/>
    </contour>
    <contour>
      <point x="1127" y="-236" type="curve" smooth="yes"/>
      <point x="1174" y="-175"/>
      <point x="1166" y="-109"/>
      <point x="1156" y="5" type="curve"/>
      <point x="1094" y="495" type="line" smooth="yes"/>
      <point x="1092" y="511"/>
      <point x="1077" y="516"/>
      <point x="1065" y="507" type="curve" smooth="yes"/>
      <point x="969" y="436" type="line" smooth="yes"/>
      <point x="965" y="433"/>
      <point x="963" y="428"/>
      <point x="964" y="423" type="curve"/>
      <point x="1057" y="-154" type="line" smooth="yes"/>
      <point x="1058" y="-160"/>
      <point x="1055" y="-167"/>
      <point x="1049" y="-169" type="curve"/>
      <point x="997" y="-203"/>
      <point x="808" y="-287"/>
      <point x="538" y="-287" type="curve" smooth="yes"/>
      <point x="342" y="-287"/>
      <point x="220" y="-188"/>
      <point x="265" y="53" type="curve" smooth="yes"/>
      <point x="295" y="198" type="line" smooth="yes"/>
      <point x="297" y="208"/>
      <point x="290" y="215"/>
      <point x="281" y="216" type="curve" smooth="yes"/>
      <point x="217" y="225" type="line" smooth="yes"/>
      <point x="209" y="226"/>
      <point x="202" y="222"/>
      <point x="200" y="213" type="curve" smooth="yes"/>
      <point x="164" y="33" type="line" smooth="yes"/>
      <point x="113" y="-221"/>
      <point x="194" y="-462"/>
      <point x="514" y="-462" type="curve" smooth="yes"/>
      <point x="711" y="-462"/>
      <point x="1023" y="-371"/>
    </contour>
  </outline>
</glyph>
<glyph name="hehDoachashmee-ar" format="1">
  <advance width="1205"/>
  <unicode hex="06BE"/>
  <outline>
    <contour>
      <point x="290" y="3"/>
      <point x="332" y="33"/>
      <point x="405" y="134" type="curve" smooth="yes"/>
      <point x="508" y="283" type="line" smooth="yes"/>
      <point x="513" y="290"/>
      <point x="519" y="292"/>
      <point x="527" y="291" type="curve" smooth="yes"/>
      <point x="1006" y="215" type="line" smooth="yes"/>
      <point x="1014" y="214"/>
      <point x="1021" y="217"/>
      <point x="1024" y="225" type="curve" smooth="yes"/>
      <point x="1162" y="528"/>
      <point x="1084" y="724"/>
      <point x="599" y="1147" type="curve" smooth="yes"/>
      <point x="591" y="1155"/>
      <point x="583" y="1154"/>
      <point x="578" y="1144" type="curve" smooth="yes"/>
      <point x="507" y="1009" type="line" smooth="yes"/>
      <point x="504" y="1003"/>
      <point x="499" y="999"/>
      <point x="492" y="996" type="curve" smooth="yes"/>
      <point x="334" y="932"/>
      <point x="169" y="703"/>
      <point x="160" y="526" type="curve" smooth="yes"/>
      <point x="155" y="426"/>
      <point x="206" y="332"/>
      <point x="341" y="289" type="curve" smooth="yes"/>
      <point x="352" y="286"/>
      <point x="355" y="278"/>
      <point x="348" y="269" type="curve" smooth="yes"/>
      <point x="172" y="59" type="line" smooth="yes"/>
      <point x="165" y="51"/>
      <point x="167" y="42"/>
      <point x="178" y="39" type="curve" smooth="yes"/>
    </contour>
    <contour>
      <point x="311" y="466"/>
      <point x="254" y="524"/>
      <point x="256" y="605" type="curve" smooth="yes"/>
      <point x="262" y="812"/>
      <point x="546" y="927"/>
      <point x="642" y="761" type="curve" smooth="yes"/>
      <point x="647" y="754"/>
      <point x="646" y="748"/>
      <point x="642" y="741" type="curve" smooth="yes"/>
      <point x="474" y="443" type="line" smooth="yes"/>
      <point x="470" y="435"/>
      <point x="464" y="433"/>
      <point x="455" y="435" type="curve" smooth="yes"/>
    </contour>
    <contour>
      <point x="630" y="439" type="line" smooth="yes"/>
      <point x="620" y="441"/>
      <point x="616" y="448"/>
      <point x="619" y="457" type="curve" smooth="yes"/>
      <point x="729" y="777" type="line" smooth="yes"/>
      <point x="733" y="788"/>
      <point x="741" y="790"/>
      <point x="749" y="782" type="curve" smooth="yes"/>
      <point x="851" y="681"/>
      <point x="993" y="505"/>
      <point x="998" y="383" type="curve" smooth="yes"/>
      <point x="999" y="373"/>
      <point x="992" y="368"/>
      <point x="982" y="370" type="curve" smooth="yes"/>
    </contour>
    <contour>
      <point x="627" y="1300" type="move" name="top"/>
    </contour>
    <contour>
      <point x="599" y="-123" type="move" name="bottom"/>
    </contour>
  </outline>
</glyph>
<glyph name="ve-ar" format="1">
  <advance width="904"/>
  <unicode hex="06CB"/>
  <outline>
    <component base="waw-ar"/>
    <component base="threedotsupabove-ar" xOffset="230" yOffset="321"/>
    <contour>
      <point x="367" y="-626" type="move" name="bottom"/>
    </contour>
  </outline>
</glyph>
<glyph name="e-ar" format="1">
  <advance width="1417"/>
  <unicode hex="06D0"/>
  <outline>
    <contour>
      <point x="487" y="517" type="move" name="top"/>
    </contour>
    <component base="alefMaksura-ar"/>
    <component base="twodotsverticalbelow-ar" xOffset="525" yOffset="-642"/>
  </outline>
</glyph>
<glyph name="five-persian" format="1">
  <advance width="903"/>
  <unicode hex="06F5"/>
  <outline>
    <contour>
      <point x="694" y="-18"/>
      <point x="794" y="131"/>
      <point x="802" y="265" type="curve" smooth="yes"/>
      <point x="818" y="514"/>
      <point x="627" y="739"/>
      <point x="367" y="1052" type="curve" smooth="yes"/>
      <point x="360" y="1061"/>
      <point x="351" y="1060"/>
      <point x="346" y="1050" type="curve" smooth="yes"/>
      <point x="273" y="911" type="line"/>
      <point x="269" y="904"/>
      <point x="269" y="898"/>
      <point x="275" y="891" type="curve" smooth="yes"/>
      <point x="350" y="807" type="line"/>
      <point x="252" y="675"/>
      <point x="100" y="452"/>
      <point x="100" y="206" type="curve" smooth="yes"/>
      <point x="100" y="59"/>
      <point x="166" y="-12"/>
      <point x="252" y="-14" type="curve" smooth="yes"/>
      <point x="310" y="-15"/>
      <point x="371" y="22"/>
      <point x="415" y="107" type="curve"/>
      <point x="444" y="2"/>
      <point x="513" y="-21"/>
      <point x="572" y="-20" type="curve" smooth="yes"/>
    </contour>
    <contour>
      <point x="545" y="140"/>
      <point x="488" y="168"/>
      <point x="477" y="264" type="curve" smooth="yes"/>
      <point x="474" y="288"/>
      <point x="468" y="301"/>
      <point x="458" y="297" type="curve"/>
      <point x="396" y="276" type="line" smooth="yes"/>
      <point x="388" y="273"/>
      <point x="384" y="268"/>
      <point x="382" y="260" type="curve"/>
      <point x="371" y="191"/>
      <point x="331" y="147"/>
      <point x="286" y="147" type="curve" smooth="yes"/>
      <point x="230" y="147"/>
      <point x="176" y="188"/>
      <point x="176" y="263" type="curve" smooth="yes"/>
      <point x="176" y="415"/>
      <point x="342" y="659"/>
      <point x="415" y="735" type="curve"/>
      <point x="540" y="595"/>
      <point x="701" y="372"/>
      <point x="730" y="255" type="curve"/>
      <point x="704" y="188"/>
      <point x="636" y="141"/>
      <point x="590" y="141" type="curve" smooth="yes"/>
    </contour>
  </outline>
</glyph>
<glyph name="bullet" format="1">
  <advance width="852"/>
  <unicode hex="2022"/>
  <outline>
    <contour>
      <point x="752" y="435" type="curve" smooth="yes"/>
      <point x="752" y="615"/>
      <point x="606" y="761"/>
      <point x="426" y="761" type="curve" smooth="yes"/>
      <point x="246" y="761"/>
      <point x="100" y="615"/>
      <point x="100" y="435" type="curve" smooth="yes"/>
      <point x="100" y="254"/>
      <point x="246" y="108"/>
      <point x="426" y="108" type="curve" smooth="yes"/>
      <point x="606" y="108"/>
      <point x="752" y="254"/>
    </contour>
  </outline>
</glyph>
<glyph name="dottedCircle" format="1">
  <advance width="923"/>
  <unicode hex="25CC"/>
  <outline>
    <contour>
      <point x="660" y="588" type="curve" smooth="yes"/>
      <point x="680" y="622"/>
      <point x="667" y="644"/>
      <point x="643" y="658" type="curve" smooth="yes"/>
      <point x="620" y="671"/>
      <point x="592" y="671"/>
      <point x="573" y="638" type="curve" smooth="yes"/>
      <point x="553" y="605"/>
      <point x="566" y="582"/>
      <point x="591" y="568" type="curve" smooth="yes"/>
      <point x="615" y="554"/>
      <point x="640" y="554"/>
    </contour>
    <contour>
      <point x="350" y="52" type="curve" smooth="yes"/>
      <point x="369" y="86"/>
      <point x="357" y="108"/>
      <point x="333" y="122" type="curve" smooth="yes"/>
      <point x="311" y="135"/>
      <point x="283" y="135"/>
      <point x="264" y="102" type="curve" smooth="yes"/>
      <point x="244" y="68"/>
      <point x="257" y="46"/>
      <point x="281" y="32" type="curve" smooth="yes"/>
      <point x="306" y="18"/>
      <point x="331" y="19"/>
    </contour>
    <contour>
      <point x="239" y="216" type="curve" smooth="yes"/>
      <point x="226" y="239"/>
      <point x="202" y="253"/>
      <point x="169" y="234" type="curve" smooth="yes"/>
      <point x="135" y="214"/>
      <point x="135" y="189"/>
      <point x="149" y="164" type="curve" smooth="yes"/>
      <point x="163" y="140"/>
      <point x="185" y="128"/>
      <point x="219" y="147" type="curve"/>
      <point x="252" y="167"/>
      <point x="253" y="192"/>
    </contour>
    <contour>
      <point x="513" y="34" type="curve" smooth="yes"/>
      <point x="513" y="60"/>
      <point x="499" y="84"/>
      <point x="461" y="84" type="curve" smooth="yes"/>
      <point x="422" y="84"/>
      <point x="409" y="62"/>
      <point x="409" y="34" type="curve" smooth="yes"/>
      <point x="409" y="6"/>
      <point x="422" y="-16"/>
      <point x="461" y="-16" type="curve" smooth="yes"/>
      <point x="500" y="-16"/>
      <point x="513" y="6"/>
    </contour>
    <contour>
      <point x="204" y="345" type="curve" smooth="yes"/>
      <point x="204" y="371"/>
      <point x="190" y="395"/>
      <point x="152" y="395" type="curve" smooth="yes"/>
      <point x="113" y="395"/>
      <point x="100" y="373"/>
      <point x="100" y="345" type="curve" smooth="yes"/>
      <point x="100" y="317"/>
      <point x="113" y="295"/>
      <point x="152" y="295" type="curve" smooth="yes"/>
      <point x="191" y="295"/>
      <point x="204" y="317"/>
    </contour>
    <contour>
      <point x="234" y="476" type="curve"/>
      <point x="254" y="509"/>
      <point x="241" y="532"/>
      <point x="217" y="545" type="curve"/>
      <point x="194" y="559"/>
      <point x="167" y="558"/>
      <point x="148" y="525" type="curve" smooth="yes"/>
      <point x="129" y="492"/>
      <point x="141" y="469"/>
      <point x="165" y="455" type="curve" smooth="yes"/>
      <point x="189" y="442"/>
      <point x="216" y="442"/>
    </contour>
    <contour>
      <point x="662" y="101" type="curve" smooth="yes"/>
      <point x="649" y="124"/>
      <point x="625" y="138"/>
      <point x="592" y="119" type="curve" smooth="yes"/>
      <point x="558" y="99"/>
      <point x="558" y="74"/>
      <point x="572" y="49" type="curve" smooth="yes"/>
      <point x="586" y="25"/>
      <point x="608" y="13"/>
      <point x="642" y="32" type="curve" smooth="yes"/>
      <point x="676" y="52"/>
      <point x="676" y="77"/>
    </contour>
    <contour>
      <point x="774" y="164" type="curve" smooth="yes"/>
      <point x="794" y="198"/>
      <point x="781" y="220"/>
      <point x="757" y="234" type="curve" smooth="yes"/>
      <point x="734" y="247"/>
      <point x="707" y="247"/>
      <point x="688" y="214" type="curve" smooth="yes"/>
      <point x="668" y="180"/>
      <point x="681" y="158"/>
      <point x="705" y="144" type="curve" smooth="yes"/>
      <point x="729" y="130"/>
      <point x="754" y="130"/>
    </contour>
    <contour>
      <point x="350" y="641" type="curve" smooth="yes"/>
      <point x="337" y="664"/>
      <point x="313" y="677"/>
      <point x="280" y="658" type="curve" smooth="yes"/>
      <point x="247" y="639"/>
      <point x="246" y="613"/>
      <point x="260" y="589" type="curve" smooth="yes"/>
      <point x="274" y="565"/>
      <point x="297" y="552"/>
      <point x="330" y="572" type="curve"/>
      <point x="364" y="591"/>
      <point x="364" y="617"/>
    </contour>
    <contour>
      <point x="823" y="345" type="curve" smooth="yes"/>
      <point x="823" y="371"/>
      <point x="809" y="395"/>
      <point x="771" y="395" type="curve" smooth="yes"/>
      <point x="732" y="395"/>
      <point x="719" y="373"/>
      <point x="719" y="345" type="curve" smooth="yes"/>
      <point x="719" y="317"/>
      <point x="732" y="295"/>
      <point x="771" y="295" type="curve" smooth="yes"/>
      <point x="810" y="295"/>
      <point x="823" y="317"/>
    </contour>
    <contour>
      <point x="513" y="657" type="curve" smooth="yes"/>
      <point x="513" y="683"/>
      <point x="499" y="707"/>
      <point x="461" y="707" type="curve" smooth="yes"/>
      <point x="422" y="707"/>
      <point x="409" y="685"/>
      <point x="409" y="657" type="curve" smooth="yes"/>
      <point x="409" y="629"/>
      <point x="422" y="607"/>
      <point x="461" y="607" type="curve" smooth="yes"/>
      <point x="500" y="607"/>
      <point x="513" y="629"/>
    </contour>
    <contour>
      <point x="775" y="526" type="curve" smooth="yes"/>
      <point x="762" y="548"/>
      <point x="738" y="562"/>
      <point x="705" y="543" type="curve" smooth="yes"/>
      <point x="671" y="524"/>
      <point x="671" y="498"/>
      <point x="685" y="474" type="curve" smooth="yes"/>
      <point x="699" y="450"/>
      <point x="721" y="437"/>
      <point x="755" y="457" type="curve" smooth="yes"/>
      <point x="789" y="476"/>
      <point x="789" y="502"/>
    </contour>
  </outline>
</glyph>
<glyph name="whiteStar.circled" format="1">
  <advance width="749"/>
  <unicode hex="272A"/>
  <outline>
    <contour>
      <point x="526" y="166"/>
      <point x="649" y="286"/>
      <point x="649" y="433" type="curve" smooth="yes"/>
      <point x="649" y="580"/>
      <point x="526" y="702"/>
      <point x="374" y="702" type="curve" smooth="yes"/>
      <point x="222" y="702"/>
      <point x="100" y="580"/>
      <point x="100" y="433" type="curve" smooth="yes"/>
      <point x="100" y="286"/>
      <point x="222" y="166"/>
      <point x="374" y="166" type="curve" smooth="yes"/>
    </contour>
    <contour>
      <point x="318" y="362" type="line"/>
      <point x="158" y="355" type="line"/>
      <point x="152" y="376" type="line"/>
      <point x="287" y="462" type="line"/>
      <point x="230" y="607" type="line"/>
      <point x="246" y="621" type="line"/>
      <point x="372" y="525" type="line"/>
      <point x="495" y="627" type="line"/>
      <point x="510" y="615" type="line"/>
      <point x="456" y="463" type="line"/>
      <point x="598" y="376" type="line"/>
      <point x="591" y="357" type="line"/>
      <point x="424" y="362" type="line"/>
      <point x="385" y="207" type="line"/>
      <point x="365" y="207" type="line"/>
    </contour>
  </outline>
</glyph>
<glyph name="peh-ar.init" format="1">
  <advance width="698"/>
  <unicode hex="FB58"/>
  <outline>
    <contour>
      <point x="80" y="0" type="line" smooth="yes"/>
      <point x="260" y="0"/>
      <point x="521" y="79"/>
      <point x="546" y="182" type="curve"/>
      <point x="566" y="242"/>
      <point x="578" y="314"/>
      <point x="578" y="368" type="curve" smooth="yes"/>
      <point x="578" y="448"/>
      <point x="517" y="695"/>
      <point x="481" y="848" type="curve"/>
      <point x="478" y="859"/>
      <point x="469" y="860"/>
      <point x="461" y="852" type="curve" smooth="yes"/>
      <point x="371" y="761" type="line"/>
      <point x="366" y="755"/>
      <point x="364" y="749"/>
      <point x="366" y="741" type="curve" smooth="yes"/>
      <point x="494" y="277" type="line" smooth="yes"/>
      <point x="501" y="252"/>
      <point x="489" y="245"/>
      <point x="473" y="236" type="curve"/>
      <point x="401" y="205"/>
      <point x="270" y="156"/>
      <point x="80" y="156" type="curve" smooth="yes"/>
      <point x="0" y="156" type="line" smooth="yes"/>
      <point x="-103" y="156"/>
      <point x="-103" y="0"/>
      <point x="0" y="0" type="curve" smooth="yes"/>
    </contour>
    <component base="threedotsdownbelow-ar" xOffset="22" yOffset="-21"/>
    <contour>
      <point x="473" y="1008" type="move" name="top"/>
    </contour>
  </outline>
</glyph>
<glyph name="peh-ar.medi" format="1">
  <advance width="794"/>
  <unicode hex="FB59"/>
  <outline>
    <component base="dotlessbeh-ar.medi"/>
    <component base="threedotsdownbelow-ar" xOffset="92" yOffset="-33"/>
    <contour>
      <point x="460" y="687" type="move" name="top"/>
    </contour>
  </outline>
</glyph>
<glyph name="veh-ar.fina" format="1">
  <advance width="1806"/>
  <unicode hex="FB6B"/>
  <outline>
    <contour>
      <point x="737" y="-200" type="move" name="bottom"/>
    </contour>
    <component base="dotlessfeh-ar.fina"/>
    <component base="threedotsupabove-ar" xOffset="1193" yOffset="446"/>
  </outline>
</glyph>
<glyph name="tcheh-ar.init" format="1">
  <advance width="1444"/>
  <unicode hex="FB7C"/>
  <outline>
    <component base="hah-ar.init"/>
    <component base="threedotsdownbelow-ar" xOffset="395" yOffset="-9"/>
    <contour>
      <point x="442" y="846" type="move" name="top"/>
    </contour>
  </outline>
</glyph>
<glyph name="dul-ar.fina" format="1">
  <advance width="1141"/>
  <unicode hex="FB87"/>
  <outline>
    <contour>
      <point x="447" y="-200" type="move" name="bottom"/>
    </contour>
    <component base="dal-ar.fina"/>
    <component base="threedotsupabove-ar" xOffset="538" yOffset="467"/>
  </outline>
</glyph>
<glyph name="gaf-ar.init" format="1">
  <advance width="776"/>
  <unicode hex="FB94"/>
  <outline>
    <contour>
      <point x="337" y="-149" type="move" name="bottom"/>
    </contour>
    <contour>
      <point x="370" y="1498" type="move" name="top"/>
    </contour>
    <contour>
      <point x="40" y="0" type="line" smooth="yes"/>
      <point x="216" y="0"/>
      <point x="425" y="33"/>
      <point x="548" y="112" type="curve" smooth="yes"/>
      <point x="554" y="116"/>
      <point x="557" y="120"/>
      <point x="560" y="127" type="curve" smooth="yes"/>
      <point x="591" y="194"/>
      <point x="619" y="278"/>
      <point x="613" y="328" type="curve" smooth="yes"/>
      <point x="579" y="624"/>
      <point x="321" y="833"/>
      <point x="148" y="921" type="curve" smooth="yes"/>
      <point x="136" y="927"/>
      <point x="137" y="936"/>
      <point x="150" y="940" type="curve" smooth="yes"/>
      <point x="719" y="1119" type="line"/>
      <point x="727" y="1121"/>
      <point x="732" y="1126"/>
      <point x="733" y="1135" type="curve" smooth="yes"/>
      <point x="749" y="1261" type="line"/>
      <point x="750" y="1272"/>
      <point x="744" y="1279"/>
      <point x="733" y="1275" type="curve" smooth="yes"/>
      <point x="137" y="1075" type="line"/>
      <point x="129" y="1072"/>
      <point x="125" y="1069"/>
      <point x="122" y="1062" type="curve"/>
      <point x="18" y="844" type="line" smooth="yes"/>
      <point x="14" y="836"/>
      <point x="17" y="829"/>
      <point x="25" y="824" type="curve"/>
      <point x="354" y="646"/>
      <point x="498" y="394"/>
      <point x="538" y="259" type="curve" smooth="yes"/>
      <point x="541" y="250"/>
      <point x="538" y="244"/>
      <point x="530" y="240" type="curve" smooth="yes"/>
      <point x="381" y="166"/>
      <point x="215" y="156"/>
      <point x="40" y="156" type="curve" smooth="yes"/>
      <point x="0" y="156" type="line" smooth="yes"/>
      <point x="-103" y="156"/>
      <point x="-103" y="0"/>
      <point x="0" y="0" type="curve" smooth="yes"/>
    </contour>
    <contour>
      <point x="603" y="1344" type="line"/>
      <point x="611" y="1347"/>
      <point x="615" y="1352"/>
      <point x="617" y="1359" type="curve" smooth="yes"/>
      <point x="635" y="1426" type="line" smooth="yes"/>
      <point x="638" y="1437"/>
      <point x="631" y="1444"/>
      <point x="620" y="1440" type="curve"/>
      <point x="244" y="1319" type="line"/>
      <point x="236" y="1316"/>
      <point x="232" y="1314"/>
      <point x="229" y="1306" type="curve"/>
      <point x="197" y="1233" type="line" smooth="yes"/>
      <point x="192" y="1221"/>
      <point x="198" y="1214"/>
      <point x="210" y="1218" type="curve" smooth="yes"/>
    </contour>
  </outline>
</glyph>
<glyph name="noonghunna-ar.fina" format="1">
  <advance width="1431"/>
  <unicode hex="FB9F"/>
  <outline>
    <contour>
      <point x="713" y="-462"/>
      <point x="1025" y="-371"/>
      <point x="1129" y="-236" type="curve" smooth="yes"/>
      <point x="1171" y="-181"/>
      <point x="1172" y="-148"/>
      <point x="1153" y="54" type="curve"/>
      <point x="1197" y="19"/>
      <point x="1244" y="0"/>
      <point x="1391" y="0" type="curve" smooth="yes"/>
      <point x="1431" y="0" type="line"/>
      <point x="1473" y="52"/>
      <point x="1473" y="104"/>
      <point x="1431" y="156" type="curve"/>
      <point x="1391" y="156" type="line" smooth="yes"/>
      <point x="1197" y="156"/>
      <point x="1142" y="172"/>
      <point x="1118" y="317" type="curve"/>
      <point x="1109" y="426" type="line" smooth="yes"/>
      <point x="1108" y="442"/>
      <point x="1092" y="447"/>
      <point x="1080" y="438" type="curve" smooth="yes"/>
      <point x="984" y="367" type="line" smooth="yes"/>
      <point x="980" y="364"/>
      <point x="978" y="359"/>
      <point x="979" y="354" type="curve"/>
      <point x="1059" y="-154" type="line" smooth="yes"/>
      <point x="1060" y="-160"/>
      <point x="1057" y="-167"/>
      <point x="1051" y="-169" type="curve"/>
      <point x="979" y="-203"/>
      <point x="810" y="-287"/>
      <point x="540" y="-287" type="curve" smooth="yes"/>
      <point x="334" y="-287"/>
      <point x="222" y="-188"/>
      <point x="267" y="53" type="curve" smooth="yes"/>
      <point x="297" y="198" type="line" smooth="yes"/>
      <point x="299" y="208"/>
      <point x="292" y="215"/>
      <point x="283" y="216" type="curve" smooth="yes"/>
      <point x="219" y="225" type="line" smooth="yes"/>
      <point x="211" y="226"/>
      <point x="204" y="222"/>
      <point x="202" y="213" type="curve" smooth="yes"/>
      <point x="166" y="33" type="line" smooth="yes"/>
      <point x="115" y="-221"/>
      <point x="176" y="-462"/>
      <point x="516" y="-462" type="curve" smooth="yes"/>
    </contour>
    <contour>
      <point x="599" y="367" type="move" name="top"/>
    </contour>
    <contour>
      <point x="623" y="-612" type="move" name="bottom"/>
    </contour>
  </outline>
</glyph>
<glyph name="hehgoal-ar.medi" format="1">
  <advance width="1080"/>
  <unicode hex="FBA9"/>
  <outline>
    <contour>
      <point x="600" y="-730" type="move" name="bottom"/>
    </contour>
    <contour>
      <point x="540" y="650" type="move" name="top"/>
    </contour>
    <contour>
      <point x="765" y="-408" type="line"/>
      <point x="770" y="-402"/>
      <point x="771" y="-395"/>
      <point x="768" y="-388" type="curve"/>
      <point x="652" y="-88" type="line"/>
      <point x="649" y="-79"/>
      <point x="652" y="-73"/>
      <point x="661" y="-69" type="curve" smooth="yes"/>
      <point x="764" y="-23"/>
      <point x="871" y="0"/>
      <point x="1080" y="0" type="curve"/>
      <point x="1122" y="52"/>
      <point x="1122" y="104"/>
      <point x="1080" y="156" type="curve"/>
      <point x="694" y="155"/>
      <point x="515" y="40"/>
      <point x="601" y="-303" type="curve"/>
      <point x="526" y="-116"/>
      <point x="478" y="-3"/>
      <point x="483" y="211" type="curve"/>
      <point x="501" y="473" type="line" smooth="yes"/>
      <point x="502" y="484"/>
      <point x="495" y="489"/>
      <point x="485" y="488" type="curve" smooth="yes"/>
      <point x="428" y="481" type="line" smooth="yes"/>
      <point x="419" y="480"/>
      <point x="414" y="475"/>
      <point x="413" y="466" type="curve" smooth="yes"/>
      <point x="395" y="308" type="line" smooth="yes"/>
      <point x="377" y="152"/>
      <point x="158" y="154"/>
      <point x="44" y="154" type="curve" smooth="yes"/>
      <point x="0" y="154" type="line" smooth="yes"/>
      <point x="-103" y="154"/>
      <point x="-103" y="-2"/>
      <point x="0" y="-2" type="curve" smooth="yes"/>
      <point x="38" y="-2" type="line" smooth="yes"/>
      <point x="146" y="-2"/>
      <point x="282" y="11"/>
      <point x="383" y="102" type="curve"/>
      <point x="354" y="-197"/>
      <point x="542" y="-454"/>
      <point x="617" y="-572" type="curve" smooth="yes"/>
      <point x="623" y="-582"/>
      <point x="631" y="-583"/>
      <point x="638" y="-573" type="curve"/>
    </contour>
  </outline>
</glyph>
<glyph name="dotabove-ar" format="1">
  <advance width="0"/>
  <unicode hex="FBB2"/>
  <outline>
    <contour>
      <point x="132" y="687" type="move" name="_top"/>
    </contour>
    <contour>
      <point x="117" y="1089" type="move" name="top"/>
    </contour>
    <component base="dotcenter-ar" yOffset="258"/>
  </outline>
</glyph>
<glyph name="twodotshorizontalabove-ar" format="1">
  <advance width="0"/>
  <unicode hex="FBB4"/>
  <outline>
    <contour>
      <point x="236" y="760" type="move" name="_top"/>
    </contour>
    <contour>
      <point x="236" y="1167" type="move" name="top"/>
    </contour>
    <component base="twodotshorizontalbelow-ar" yOffset="1166"/>
  </outline>
</glyph>
<glyph name="twodotshorizontalbelow-ar" format="1">
  <advance width="0"/>
  <unicode hex="FBB5"/>
  <outline>
    <contour>
      <point x="236" y="-149" type="move" name="_bottom"/>
    </contour>
    <contour>
      <point x="236" y="-556" type="move" name="bottom"/>
    </contour>
    <component base="dotcenter-ar" xScale="0.914" yScale="0.914" xOffset="249" yOffset="-772"/>
    <component base="dotcenter-ar" xScale="0.914" yScale="0.914" yOffset="-797"/>
  </outline>
</glyph>
<glyph name="threedotsupbelow-ar" format="1">
  <advance width="0"/>
  <unicode hex="FBB7"/>
  <outline>
    <component base="threedotsupabove-ar" yOffset="-1108"/>
    <contour>
      <point x="230" y="-685" type="move" name="_bottom"/>
    </contour>
    <contour>
      <point x="218" y="-116" type="move" name="bottom"/>
    </contour>
  </outline>
</glyph>
<glyph name="threedotsdownabove-ar" format="1">
  <advance width="0"/>
  <unicode hex="FBB8"/>
  <outline>
    <contour>
      <point x="241" y="560" type="move" name="_top"/>
    </contour>
    <contour>
      <point x="230" y="1112" type="move" name="top"/>
    </contour>
    <component base="threedotsdowncenter-ar" yOffset="285"/>
  </outline>
</glyph>
<glyph name="threedotsdownbelow-ar" format="1">
  <advance width="0"/>
  <unicode hex="FBB9"/>
  <outline>
    <contour>
      <point x="230" y="-122" type="move" name="_bottom"/>
    </contour>
    <contour>
      <point x="241" y="-675" type="move" name="bottom"/>
    </contour>
    <component base="threedotsdowncenter-ar" yOffset="-800"/>
  </outline>
</glyph>
<glyph name="fourdotsabove-ar" format="1">
  <advance width="0"/>
  <unicode hex="FBBA"/>
  <outline>
    <contour>
      <point x="195" y="604" type="move" name="_top"/>
    </contour>
    <contour>
      <point x="197" y="1183" type="move" name="top"/>
    </contour>
    <component base="dotcenter-ar" xScale="0.772" yScale="0.772" yOffset="274"/>
    <component base="dotcenter-ar" xScale="0.772" yScale="0.772" yOffset="495"/>
    <component base="dotcenter-ar" xScale="0.772" yScale="0.772" xOffset="203" yOffset="286"/>
    <component base="dotcenter-ar" xScale="0.772" yScale="0.772" xOffset="203" yOffset="507"/>
  </outline>
</glyph>
<glyph name="ng-ar.init" format="1">
  <advance width="736"/>
  <unicode hex="FBD5"/>
  <outline>
    <contour>
      <point x="337" y="-149" type="move" name="bottom"/>
    </contour>
    <component base="kaf-ar.init"/>
    <component base="threedotsupabove-ar" xOffset="168" yOffset="698"/>
  </outline>
</glyph>
<glyph name="ng-ar.medi" format="1">
  <advance width="911"/>
  <unicode hex="FBD6"/>
  <outline>
    <contour>
      <point x="338" y="-149" type="move" name="bottom"/>
    </contour>
    <component base="kaf-ar.medi"/>
    <component base="threedotsupabove-ar" xOffset="212" yOffset="740"/>
  </outline>
</glyph>
<glyph name="ve-ar.fina" format="1">
  <advance width="953"/>
  <unicode hex="FBDF"/>
  <outline>
    <component base="waw-ar.fina"/>
    <component base="threedotsupabove-ar" xOffset="250" yOffset="321"/>
    <contour>
      <point x="388" y="-621" type="move" name="bottom"/>
    </contour>
  </outline>
</glyph>
<glyph name="e-ar.init" format="1">
  <advance width="649"/>
  <unicode hex="FBE6"/>
  <outline>
    <component base="dotlessbeh-ar.init"/>
    <component base="twodotsverticalbelow-ar" xOffset="152" yOffset="-112"/>
    <contour>
      <point x="361" y="981" type="move" name="top"/>
    </contour>
  </outline>
</glyph>
<glyph name="e-ar.medi" format="1">
  <advance width="794"/>
  <unicode hex="FBE7"/>
  <outline>
    <contour>
      <point x="460" y="687" type="move" name="top"/>
    </contour>
    <component base="dotlessbeh-ar.medi"/>
    <component base="twodotsverticalbelow-ar" xOffset="220" yOffset="-111"/>
  </outline>
</glyph>
<glyph name="yeh-farsi.init" format="1">
  <advance width="649"/>
  <unicode hex="FBFE"/>
  <outline>
    <component base="yeh-ar.init"/>
    <contour>
      <point x="361" y="981" type="move" name="top"/>
    </contour>
  </outline>
</glyph>
<glyph name="yeh-farsi.medi" format="1">
  <advance width="794"/>
  <unicode hex="FBFF"/>
  <outline>
    <contour>
      <point x="460" y="687" type="move" name="top"/>
    </contour>
    <component base="yeh-ar.medi"/>
  </outline>
</glyph>
<glyph name="alefMadda-ar.fina" format="1">
  <advance width="579"/>
  <unicode hex="FE82"/>
  <outline>
    <component base="madda-ar" xOffset="-46" yOffset="16"/>
    <component base="alef-ar.fina.short"/>
    <contour>
      <point x="290" y="1670" type="move" name="top"/>
    </contour>
  </outline>
</glyph>
<glyph name="alef-ar.fina" format="1">
  <advance width="579"/>
  <unicode hex="FE8E"/>
  <outline>
    <contour>
      <point x="423" y="-150" type="move" name="bottom"/>
    </contour>
    <contour>
      <point x="220" y="1480" type="move" name="top"/>
    </contour>
    <contour>
      <point x="579" y="0" type="line"/>
      <point x="621" y="52"/>
      <point x="621" y="104"/>
      <point x="579" y="156" type="curve"/>
      <point x="521" y="156" type="line" smooth="yes"/>
      <point x="474" y="156"/>
      <point x="379" y="174"/>
      <point x="318" y="211" type="curve" smooth="yes"/>
      <point x="311" y="215"/>
      <point x="308" y="220"/>
      <point x="308" y="229" type="curve"/>
      <point x="291" y="1322" type="line"/>
      <point x="291" y="1334"/>
      <point x="284" y="1339"/>
      <point x="273" y="1332" type="curve" smooth="yes"/>
      <point x="159" y="1260" type="line"/>
      <point x="152" y="1255"/>
      <point x="150" y="1251"/>
      <point x="150" y="1242" type="curve"/>
      <point x="196" y="342" type="line" smooth="yes"/>
      <point x="208" y="107"/>
      <point x="267" y="0"/>
      <point x="479" y="0" type="curve" smooth="yes"/>
    </contour>
  </outline>
</glyph>
<glyph name="tehMarbuta-ar.fina" format="1">
  <advance width="983"/>
  <unicode hex="FE94"/>
  <outline>
    <component base="heh-ar.fina"/>
    <component base="twodotshorizontalabove-ar" xOffset="369" yOffset="345"/>
    <contour>
      <point x="439" y="-143" type="move" name="bottom"/>
    </contour>
  </outline>
</glyph>
<glyph name="tehMarbuta-ar.fina" format="1">
  <advance width="983"/>
  <unicode hex="FE94"/>
  <outline>
    <contour>
      <point x="439" y="-143" type="move" name="bottom"/>
    </contour>
    <component base="heh-ar.fina"/>
    <component base="twodotshorizontalabove-ar" xOffset="369" yOffset="345"/>
  </outline>
</glyph>
<glyph name="teh-ar.init" format="1">
  <advance width="649"/>
  <unicode hex="FE97"/>
  <outline>
    <contour>
      <point x="254" y="-156" type="move" name="bottom"/>
    </contour>
    <contour>
      <point x="209" y="1285" type="move" name="top"/>
    </contour>
    <component base="dotlessbeh-ar.init"/>
    <component base="twodotshorizontalabove-ar" xOffset="42" yOffset="200"/>
  </outline>
</glyph>
<glyph name="theh-ar.init" format="1">
  <advance width="649"/>
  <unicode hex="FE9B"/>
  <outline>
    <component base="dotlessbeh-ar.init"/>
    <component base="threedotsupabove-ar" xOffset="134" yOffset="406"/>
    <contour>
      <point x="254" y="-156" type="move" name="bottom"/>
    </contour>
  </outline>
</glyph>
<glyph name="dal-ar.fina" format="1">
  <advance width="1141"/>
  <unicode hex="FEAA"/>
  <outline>
    <contour>
      <point x="447" y="-200" type="move" name="bottom"/>
    </contour>
    <contour>
      <point x="765" y="1042" type="move" name="top"/>
    </contour>
    <contour>
      <point x="796" y="46" type="curve" smooth="yes"/>
      <point x="827" y="68"/>
      <point x="844" y="100"/>
      <point x="852" y="138" type="curve" smooth="yes"/>
      <point x="854" y="149"/>
      <point x="858" y="149"/>
      <point x="863" y="139" type="curve"/>
      <point x="907" y="41"/>
      <point x="993" y="0"/>
      <point x="1101" y="0" type="curve" smooth="yes"/>
      <point x="1141" y="0" type="line"/>
      <point x="1183" y="52"/>
      <point x="1183" y="104"/>
      <point x="1141" y="156" type="curve"/>
      <point x="1113" y="156" type="line" smooth="yes"/>
      <point x="937" y="156"/>
      <point x="894" y="216"/>
      <point x="855" y="457" type="curve" smooth="yes"/>
      <point x="786" y="880" type="line" smooth="yes"/>
      <point x="784" y="891"/>
      <point x="776" y="895"/>
      <point x="767" y="888" type="curve" smooth="yes"/>
      <point x="663" y="809" type="line"/>
      <point x="657" y="804"/>
      <point x="653" y="799"/>
      <point x="655" y="790" type="curve" smooth="yes"/>
      <point x="771" y="193" type="line" smooth="yes"/>
      <point x="773" y="183"/>
      <point x="769" y="178"/>
      <point x="761" y="175" type="curve"/>
      <point x="633" y="136"/>
      <point x="459" y="108"/>
      <point x="332" y="126" type="curve" smooth="yes"/>
      <point x="266" y="136"/>
      <point x="259" y="159"/>
      <point x="253" y="268" type="curve"/>
      <point x="252" y="278"/>
      <point x="246" y="283"/>
      <point x="237" y="283" type="curve" smooth="yes"/>
      <point x="170" y="283" type="line" smooth="yes"/>
      <point x="161" y="283"/>
      <point x="156" y="278"/>
      <point x="155" y="269" type="curve" smooth="yes"/>
      <point x="141" y="104"/>
      <point x="136" y="-49"/>
      <point x="389" y="-49" type="curve" smooth="yes"/>
      <point x="509" y="-49"/>
      <point x="721" y="-8"/>
    </contour>
  </outline>
</glyph>
<glyph name="seen-ar.fina" format="1">
  <advance width="2496"/>
  <unicode hex="FEB2"/>
  <outline>
    <contour>
      <point x="614" y="-612" type="move" name="bottom"/>
    </contour>
    <contour>
      <point x="645" y="620" type="move" name="top"/>
    </contour>
    <contour>
      <point x="1126" y="-236" type="curve" smooth="yes"/>
      <point x="1171" y="-174"/>
      <point x="1165" y="-96"/>
      <point x="1155" y="18" type="curve"/>
      <point x="1221" y="0"/>
      <point x="1296" y="-8"/>
      <point x="1357" y="-8" type="curve" smooth="yes"/>
      <point x="1469" y="-7"/>
      <point x="1580" y="24"/>
      <point x="1621" y="76" type="curve"/>
      <point x="1695" y="30"/>
      <point x="1798" y="-1"/>
      <point x="1889" y="-3" type="curve" smooth="yes"/>
      <point x="2032" y="-8"/>
      <point x="2136" y="14"/>
      <point x="2179" y="100" type="curve" smooth="yes"/>
      <point x="2186" y="113"/>
      <point x="2198" y="115"/>
      <point x="2208" y="103" type="curve" smooth="yes"/>
      <point x="2261" y="36"/>
      <point x="2337" y="0"/>
      <point x="2426" y="0" type="curve" smooth="yes"/>
      <point x="2496" y="0" type="line"/>
      <point x="2538" y="52"/>
      <point x="2538" y="104"/>
      <point x="2496" y="156" type="curve"/>
      <point x="2426" y="156" type="line" smooth="yes"/>
      <point x="2272" y="156"/>
      <point x="2242" y="226"/>
      <point x="2206" y="454" type="curve" smooth="yes"/>
      <point x="2185" y="587" type="line" smooth="yes"/>
      <point x="2183" y="601"/>
      <point x="2168" y="606"/>
      <point x="2157" y="597" type="curve" smooth="yes"/>
      <point x="2070" y="528" type="line" smooth="yes"/>
      <point x="2065" y="524"/>
      <point x="2064" y="520"/>
      <point x="2065" y="514" type="curve" smooth="yes"/>
      <point x="2120" y="181" type="line"/>
      <point x="2121" y="172"/>
      <point x="2117" y="164"/>
      <point x="2108" y="162" type="curve" smooth="yes"/>
      <point x="1966" y="134"/>
      <point x="1827" y="141"/>
      <point x="1705" y="198" type="curve" smooth="yes"/>
      <point x="1699" y="201"/>
      <point x="1696" y="206"/>
      <point x="1697" y="212" type="curve"/>
      <point x="1731" y="506" type="line" smooth="yes"/>
      <point x="1732" y="516"/>
      <point x="1726" y="522"/>
      <point x="1717" y="523" type="curve" smooth="yes"/>
      <point x="1657" y="528" type="line"/>
      <point x="1649" y="529"/>
      <point x="1642" y="524"/>
      <point x="1641" y="515" type="curve" smooth="yes"/>
      <point x="1612" y="298" type="line" smooth="yes"/>
      <point x="1595" y="173"/>
      <point x="1494" y="150"/>
      <point x="1365" y="150" type="curve" smooth="yes"/>
      <point x="1307" y="150"/>
      <point x="1246" y="152"/>
      <point x="1201" y="168" type="curve" smooth="yes"/>
      <point x="1162" y="182"/>
      <point x="1134" y="208"/>
      <point x="1126" y="262" type="curve" smooth="yes"/>
      <point x="1093" y="495" type="line" smooth="yes"/>
      <point x="1091" y="511"/>
      <point x="1076" y="516"/>
      <point x="1064" y="507" type="curve" smooth="yes"/>
      <point x="968" y="436" type="line" smooth="yes"/>
      <point x="964" y="433"/>
      <point x="962" y="428"/>
      <point x="963" y="423" type="curve"/>
      <point x="1056" y="-154" type="line" smooth="yes"/>
      <point x="1057" y="-160"/>
      <point x="1054" y="-167"/>
      <point x="1048" y="-169" type="curve"/>
      <point x="996" y="-193"/>
      <point x="767" y="-287"/>
      <point x="537" y="-287" type="curve" smooth="yes"/>
      <point x="341" y="-287"/>
      <point x="217" y="-188"/>
      <point x="264" y="53" type="curve" smooth="yes"/>
      <point x="294" y="208" type="line" smooth="yes"/>
      <point x="296" y="218"/>
      <point x="289" y="225"/>
      <point x="280" y="226" type="curve" smooth="yes"/>
      <point x="216" y="235" type="line" smooth="yes"/>
      <point x="208" y="236"/>
      <point x="201" y="232"/>
      <point x="199" y="223" type="curve" smooth="yes"/>
      <point x="163" y="33" type="line" smooth="yes"/>
      <point x="115" y="-222"/>
      <point x="193" y="-462"/>
      <point x="513" y="-462" type="curve" smooth="yes"/>
      <point x="710" y="-462"/>
      <point x="1022" y="-380"/>
    </contour>
  </outline>
</glyph>
<glyph name="seen-ar.init" format="1">
  <advance width="1599"/>
  <unicode hex="FEB3"/>
  <outline>
    <contour>
      <point x="995" y="-170" type="move" name="bottom"/>
    </contour>
    <contour>
      <point x="877" y="760" type="move" name="top"/>
    </contour>
    <contour>
      <point x="915" y="77" type="curve"/>
      <point x="989" y="31"/>
      <point x="1092" y="-1"/>
      <point x="1183" y="-3" type="curve" smooth="yes"/>
      <point x="1395" y="-10"/>
      <point x="1485" y="42"/>
      <point x="1479" y="270" type="curve" smooth="yes"/>
      <point x="1475" y="358"/>
      <point x="1437" y="583"/>
      <point x="1402" y="730" type="curve" smooth="yes"/>
      <point x="1399" y="741"/>
      <point x="1390" y="742"/>
      <point x="1382" y="734" type="curve" smooth="yes"/>
      <point x="1292" y="643" type="line"/>
      <point x="1287" y="637"/>
      <point x="1285" y="631"/>
      <point x="1287" y="623" type="curve" smooth="yes"/>
      <point x="1394" y="187" type="line" smooth="yes"/>
      <point x="1397" y="175"/>
      <point x="1388" y="166"/>
      <point x="1377" y="163" type="curve"/>
      <point x="1239" y="135"/>
      <point x="1120" y="145"/>
      <point x="999" y="198" type="curve" smooth="yes"/>
      <point x="994" y="200"/>
      <point x="990" y="205"/>
      <point x="991" y="212" type="curve" smooth="yes"/>
      <point x="1025" y="506" type="line" smooth="yes"/>
      <point x="1026" y="516"/>
      <point x="1020" y="522"/>
      <point x="1011" y="523" type="curve" smooth="yes"/>
      <point x="951" y="528" type="line"/>
      <point x="943" y="529"/>
      <point x="936" y="524"/>
      <point x="935" y="515" type="curve" smooth="yes"/>
      <point x="906" y="299" type="line" smooth="yes"/>
      <point x="890" y="174"/>
      <point x="788" y="148"/>
      <point x="659" y="148" type="curve" smooth="yes"/>
      <point x="588" y="148"/>
      <point x="499" y="157"/>
      <point x="431" y="187" type="curve"/>
      <point x="425" y="189"/>
      <point x="423" y="195"/>
      <point x="423" y="201" type="curve"/>
      <point x="448" y="506" type="line" smooth="yes"/>
      <point x="449" y="516"/>
      <point x="443" y="522"/>
      <point x="433" y="523" type="curve"/>
      <point x="373" y="526" type="line"/>
      <point x="365" y="526"/>
      <point x="358" y="522"/>
      <point x="357" y="513" type="curve" smooth="yes"/>
      <point x="339" y="378" type="line" smooth="yes"/>
      <point x="315" y="198"/>
      <point x="282" y="170"/>
      <point x="105" y="159" type="curve"/>
      <point x="0" y="157" type="line" smooth="yes"/>
      <point x="-103" y="155"/>
      <point x="-103" y="0"/>
      <point x="0" y="0" type="curve" smooth="yes"/>
      <point x="108" y="0" type="line" smooth="yes"/>
      <point x="198" y="0"/>
      <point x="284" y="45"/>
      <point x="317" y="87" type="curve"/>
      <point x="384" y="12"/>
      <point x="540" y="-5"/>
      <point x="651" y="-5" type="curve" smooth="yes"/>
      <point x="763" y="-4"/>
      <point x="874" y="25"/>
    </contour>
  </outline>
</glyph>
<glyph name="sheen-ar.fina" format="1">
  <advance width="2496"/>
  <unicode hex="FEB6"/>
  <outline>
    <component base="seen-ar.fina"/>
    <component base="threedotsupabove-ar" xOffset="1360" yOffset="185"/>
    <contour>
      <point x="615" y="-612" type="move" name="bottom"/>
    </contour>
  </outline>
</glyph>
<glyph name="sheen-ar.medi" format="1">
  <advance width="1770"/>
  <unicode hex="FEB8"/>
  <outline>
    <contour>
      <point x="990" y="-170" type="move" name="bottom"/>
    </contour>
    <component base="seen-ar.medi"/>
    <component base="threedotsupabove-ar" xOffset="645" yOffset="185"/>
  </outline>
</glyph>
<glyph name="sad-ar.init" format="1">
  <advance width="1557"/>
  <unicode hex="FEBB"/>
  <outline>
    <contour>
      <point x="847" y="-167" type="move" name="bottom"/>
    </contour>
    <contour>
      <point x="998" y="839" type="move" name="top"/>
    </contour>
    <contour>
      <point x="1368" y="171" type="curve" smooth="yes"/>
      <point x="1554" y="336"/>
      <point x="1338" y="687"/>
      <point x="1053" y="689" type="curve" smooth="yes"/>
      <point x="905" y="690"/>
      <point x="706" y="571"/>
      <point x="400" y="206" type="curve"/>
      <point x="395" y="199"/>
      <point x="388" y="197"/>
      <point x="380" y="200" type="curve"/>
      <point x="332" y="215"/>
      <point x="333" y="221"/>
      <point x="341" y="317" type="curve" smooth="yes"/>
      <point x="357" y="507" type="line" smooth="yes"/>
      <point x="358" y="516"/>
      <point x="352" y="523"/>
      <point x="343" y="523" type="curve" smooth="yes"/>
      <point x="282" y="525" type="line" smooth="yes"/>
      <point x="273" y="525"/>
      <point x="267" y="522"/>
      <point x="266" y="512" type="curve"/>
      <point x="240" y="322" type="line" smooth="yes"/>
      <point x="225" y="215"/>
      <point x="200" y="156"/>
      <point x="40" y="156" type="curve" smooth="yes"/>
      <point x="0" y="156" type="line" smooth="yes"/>
      <point x="-103" y="156"/>
      <point x="-103" y="0"/>
      <point x="0" y="0" type="curve" smooth="yes"/>
      <point x="40" y="0" type="line" smooth="yes"/>
      <point x="132" y="0"/>
      <point x="210" y="37"/>
      <point x="264" y="95" type="curve"/>
      <point x="376" y="24"/>
      <point x="543" y="-7"/>
      <point x="717" y="-5" type="curve" smooth="yes"/>
      <point x="962" y="-2"/>
      <point x="1223" y="45"/>
    </contour>
    <contour>
      <point x="993" y="524" type="curve" smooth="yes"/>
      <point x="1185" y="524"/>
      <point x="1309" y="362"/>
      <point x="1343" y="298" type="curve"/>
      <point x="1347" y="289"/>
      <point x="1345" y="283"/>
      <point x="1336" y="278" type="curve" smooth="yes"/>
      <point x="1082" y="139"/>
      <point x="711" y="131"/>
      <point x="487" y="174" type="curve"/>
      <point x="715" y="449"/>
      <point x="852" y="524"/>
    </contour>
  </outline>
</glyph>
<glyph name="dad-ar.fina" format="1">
  <advance width="2460"/>
  <unicode hex="FEBE"/>
  <outline>
    <contour>
      <point x="615" y="-612" type="move" name="bottom"/>
    </contour>
    <contour>
      <point x="645" y="620" type="move" name="top"/>
    </contour>
    <component base="sad-ar.fina"/>
    <component base="dotabove-ar" xOffset="1720" yOffset="164"/>
  </outline>
</glyph>
<glyph name="tah-ar.fina" format="1">
  <advance width="1602"/>
  <unicode hex="FEC2"/>
  <outline>
    <contour>
      <point x="692" y="-170" type="move" name="bottom"/>
    </contour>
    <contour>
      <point x="1065" y="885" type="move" name="top"/>
    </contour>
    <contour>
      <point x="1182" y="84" type="curve"/>
      <point x="1189" y="86"/>
      <point x="1195" y="85"/>
      <point x="1199" y="81" type="curve" smooth="yes"/>
      <point x="1263" y="15"/>
      <point x="1413" y="0"/>
      <point x="1562" y="0" type="curve" smooth="yes"/>
      <point x="1596" y="0" type="line" smooth="yes"/>
      <point x="1600" y="0"/>
      <point x="1603" y="2"/>
      <point x="1606" y="5" type="curve"/>
      <point x="1643" y="53"/>
      <point x="1643" y="103"/>
      <point x="1606" y="151" type="curve"/>
      <point x="1603" y="154"/>
      <point x="1600" y="156"/>
      <point x="1596" y="156" type="curve" smooth="yes"/>
      <point x="1562" y="156" type="line" smooth="yes"/>
      <point x="1510" y="156"/>
      <point x="1408" y="161"/>
      <point x="1337" y="172" type="curve"/>
      <point x="1352" y="184"/>
      <point x="1367" y="196"/>
      <point x="1380" y="209" type="curve" smooth="yes"/>
      <point x="1564" y="390"/>
      <point x="1347" y="716"/>
      <point x="1085" y="734" type="curve" smooth="yes"/>
      <point x="922" y="745"/>
      <point x="741" y="617"/>
      <point x="573" y="431" type="curve"/>
      <point x="599" y="515"/>
      <point x="604" y="610"/>
      <point x="599" y="744" type="curve" smooth="yes"/>
      <point x="578" y="1321" type="line" smooth="yes"/>
      <point x="577" y="1337"/>
      <point x="561" y="1345"/>
      <point x="548" y="1336" type="curve" smooth="yes"/>
      <point x="434" y="1256" type="line"/>
      <point x="430" y="1254"/>
      <point x="428" y="1249"/>
      <point x="428" y="1245" type="curve"/>
      <point x="481" y="379"/>
      <point x="520" y="365"/>
      <point x="344" y="180" type="curve" smooth="yes"/>
      <point x="341" y="177"/>
      <point x="338" y="176"/>
      <point x="334" y="176" type="curve"/>
      <point x="169" y="193" type="line" smooth="yes"/>
      <point x="157" y="194"/>
      <point x="147" y="184"/>
      <point x="151" y="171" type="curve"/>
      <point x="182" y="41"/>
      <point x="214" y="6"/>
      <point x="328" y="0" type="curve" smooth="yes"/>
      <point x="561" y="-13"/>
      <point x="919" y="-17"/>
    </contour>
    <contour>
      <point x="1010" y="563" type="curve" smooth="yes"/>
      <point x="1211" y="550"/>
      <point x="1316" y="392"/>
      <point x="1341" y="321" type="curve" smooth="yes"/>
      <point x="1343" y="315"/>
      <point x="1340" y="308"/>
      <point x="1333" y="305" type="curve"/>
      <point x="1078" y="177"/>
      <point x="751" y="155"/>
      <point x="445" y="169" type="curve"/>
      <point x="757" y="492"/>
      <point x="860" y="573"/>
    </contour>
  </outline>
</glyph>
<glyph name="qaf-ar.fina" format="1">
  <advance width="1445"/>
  <unicode hex="FED6"/>
  <outline>
    <contour>
      <point x="666" y="-610" type="move" name="bottom"/>
    </contour>
    <component base="dotlessqaf-ar.fina"/>
    <component base="twodotshorizontalabove-ar" xOffset="729" yOffset="87"/>
  </outline>
</glyph>
<glyph name="qaf-ar.init" format="1">
  <advance width="865"/>
  <unicode hex="FED7"/>
  <outline>
    <contour>
      <point x="347" y="-150" type="move" name="bottom"/>
    </contour>
    <component base="dotlessfeh-ar.init"/>
    <component base="twodotshorizontalabove-ar" xOffset="199" yOffset="372"/>
  </outline>
</glyph>
<glyph name="kaf-ar.init" format="1">
  <advance width="736"/>
  <unicode hex="FEDB"/>
  <outline>
    <contour>
      <point x="40" y="0" type="line" smooth="yes"/>
      <point x="160" y="0"/>
      <point x="295" y="15"/>
      <point x="408" y="50" type="curve" smooth="yes"/>
      <point x="550" y="96"/>
      <point x="631" y="171"/>
      <point x="613" y="328" type="curve" smooth="yes"/>
      <point x="579" y="624"/>
      <point x="321" y="833"/>
      <point x="148" y="921" type="curve" smooth="yes"/>
      <point x="136" y="927"/>
      <point x="137" y="936"/>
      <point x="150" y="940" type="curve" smooth="yes"/>
      <point x="719" y="1119" type="line"/>
      <point x="727" y="1121"/>
      <point x="732" y="1126"/>
      <point x="733" y="1135" type="curve" smooth="yes"/>
      <point x="749" y="1261" type="line"/>
      <point x="750" y="1272"/>
      <point x="744" y="1279"/>
      <point x="733" y="1275" type="curve" smooth="yes"/>
      <point x="137" y="1075" type="line"/>
      <point x="129" y="1072"/>
      <point x="125" y="1069"/>
      <point x="122" y="1062" type="curve"/>
      <point x="18" y="844" type="line" smooth="yes"/>
      <point x="14" y="836"/>
      <point x="17" y="829"/>
      <point x="25" y="824" type="curve"/>
      <point x="354" y="646"/>
      <point x="498" y="394"/>
      <point x="538" y="259" type="curve" smooth="yes"/>
      <point x="541" y="250"/>
      <point x="538" y="244"/>
      <point x="530" y="240" type="curve" smooth="yes"/>
      <point x="381" y="166"/>
      <point x="215" y="156"/>
      <point x="40" y="156" type="curve" smooth="yes"/>
      <point x="0" y="156" type="line" smooth="yes"/>
      <point x="-103" y="156"/>
      <point x="-103" y="0"/>
      <point x="0" y="0" type="curve" smooth="yes"/>
    </contour>
    <contour>
      <point x="395" y="1273" type="move" name="top"/>
    </contour>
    <contour>
      <point x="337" y="-149" type="move" name="bottom"/>
    </contour>
  </outline>
</glyph>
<glyph name="lam-ar.init" format="1">
  <advance width="471"/>
  <unicode hex="FEDF"/>
  <outline>
    <contour>
      <point x="40" y="0" type="line" smooth="yes"/>
      <point x="270" y="0"/>
      <point x="365" y="87"/>
      <point x="349" y="324" type="curve" smooth="yes"/>
      <point x="281" y="1330" type="line" smooth="yes"/>
      <point x="280" y="1342"/>
      <point x="273" y="1346"/>
      <point x="263" y="1339" type="curve" smooth="yes"/>
      <point x="149" y="1258" type="line"/>
      <point x="143" y="1253"/>
      <point x="139" y="1248"/>
      <point x="140" y="1239" type="curve" smooth="yes"/>
      <point x="259" y="209" type="line" smooth="yes"/>
      <point x="260" y="200"/>
      <point x="257" y="193"/>
      <point x="248" y="191" type="curve"/>
      <point x="193" y="174"/>
      <point x="95" y="156"/>
      <point x="40" y="156" type="curve" smooth="yes"/>
      <point x="0" y="156" type="line" smooth="yes"/>
      <point x="-103" y="156"/>
      <point x="-103" y="0"/>
      <point x="0" y="0" type="curve" smooth="yes"/>
    </contour>
    <contour>
      <point x="210" y="1502" type="move" name="top"/>
    </contour>
    <contour>
      <point x="129" y="-150" type="move" name="bottom"/>
    </contour>
  </outline>
</glyph>
<glyph name="heh-ar.fina" format="1">
  <advance width="983"/>
  <unicode hex="FEEA"/>
  <outline>
    <contour>
      <point x="983" y="0" type="line"/>
      <point x="1025" y="52"/>
      <point x="1025" y="104"/>
      <point x="983" y="156" type="curve"/>
      <point x="943" y="156" type="line" smooth="yes"/>
      <point x="807" y="156"/>
      <point x="737" y="209"/>
      <point x="723" y="360" type="curve" smooth="yes"/>
      <point x="670" y="949" type="line" smooth="yes"/>
      <point x="669" y="960"/>
      <point x="661" y="965"/>
      <point x="651" y="958" type="curve" smooth="yes"/>
      <point x="545" y="889" type="line"/>
      <point x="538" y="885"/>
      <point x="536" y="879"/>
      <point x="537" y="870" type="curve"/>
      <point x="565" y="697" type="line"/>
      <point x="566" y="689"/>
      <point x="563" y="682"/>
      <point x="555" y="678" type="curve" smooth="yes"/>
      <point x="357" y="579"/>
      <point x="168" y="430"/>
      <point x="150" y="184" type="curve"/>
      <point x="149" y="177"/>
      <point x="152" y="160"/>
      <point x="153" y="153" type="curve"/>
      <point x="173" y="65"/>
      <point x="338" y="43"/>
      <point x="480" y="47" type="curve" smooth="yes"/>
      <point x="613" y="51"/>
      <point x="639" y="107"/>
      <point x="656" y="172" type="curve"/>
      <point x="704" y="50"/>
      <point x="791" y="0"/>
      <point x="943" y="0" type="curve" smooth="yes"/>
    </contour>
    <contour>
      <point x="499" y="183"/>
      <point x="311" y="204"/>
      <point x="229" y="258" type="curve"/>
      <point x="224" y="261"/>
      <point x="223" y="267"/>
      <point x="227" y="276" type="curve" smooth="yes"/>
      <point x="274" y="373"/>
      <point x="405" y="481"/>
      <point x="571" y="555" type="curve"/>
      <point x="581" y="559"/>
      <point x="588" y="555"/>
      <point x="589" y="545" type="curve"/>
      <point x="635" y="229" type="line"/>
      <point x="636" y="219"/>
      <point x="632" y="214"/>
      <point x="623" y="212" type="curve" smooth="yes"/>
    </contour>
    <contour>
      <point x="605" y="1105" type="move" name="top"/>
    </contour>
    <contour>
      <point x="439" y="-143" type="move" name="bottom"/>
    </contour>
  </outline>
</glyph>
<glyph name="heh-ar.medi" format="1">
  <advance width="832"/>
  <unicode hex="FEEC"/>
  <outline>
    <contour>
      <point x="501" y="-624" type="move" name="bottom"/>
    </contour>
    <contour>
      <point x="552" y="1039" type="move" name="top"/>
    </contour>
    <contour>
      <point x="706" y="-492" type="curve"/>
      <point x="775" y="-231"/>
      <point x="697" y="-75"/>
      <point x="625" y="-7" type="curve"/>
      <point x="622" y="-3"/>
      <point x="631" y="0"/>
      <point x="644" y="0" type="curve" smooth="yes"/>
      <point x="832" y="0" type="line"/>
      <point x="874" y="52"/>
      <point x="874" y="104"/>
      <point x="832" y="156" type="curve"/>
      <point x="792" y="156" type="line" smooth="yes"/>
      <point x="697" y="156"/>
      <point x="639" y="147"/>
      <point x="537" y="137" type="curve" smooth="yes"/>
      <point x="524" y="136"/>
      <point x="522" y="141"/>
      <point x="531" y="150" type="curve"/>
      <point x="725" y="326"/>
      <point x="695" y="390"/>
      <point x="679" y="796" type="curve"/>
      <point x="678" y="805"/>
      <point x="675" y="810"/>
      <point x="668" y="814" type="curve" smooth="yes"/>
      <point x="560" y="875" type="line" smooth="yes"/>
      <point x="553" y="879"/>
      <point x="546" y="879"/>
      <point x="539" y="873" type="curve" smooth="yes"/>
      <point x="331" y="699"/>
      <point x="206" y="453"/>
      <point x="140" y="169" type="curve" smooth="yes"/>
      <point x="138" y="160"/>
      <point x="133" y="155"/>
      <point x="124" y="155" type="curve" smooth="yes"/>
      <point x="0" y="156" type="line" smooth="yes"/>
      <point x="-103" y="157"/>
      <point x="-103" y="1"/>
      <point x="0" y="0" type="curve" smooth="yes"/>
      <point x="119" y="-1" type="line" smooth="yes"/>
      <point x="128" y="-1"/>
      <point x="134" y="-6"/>
      <point x="135" y="-16" type="curve" smooth="yes"/>
      <point x="167" y="-317"/>
      <point x="391" y="-515"/>
      <point x="690" y="-506" type="curve" smooth="yes"/>
      <point x="699" y="-506"/>
      <point x="704" y="-501"/>
    </contour>
    <contour>
      <point x="267" y="-2" type="curve" smooth="yes"/>
      <point x="266" y="8"/>
      <point x="272" y="13"/>
      <point x="282" y="13" type="curve" smooth="yes"/>
      <point x="480" y="7"/>
      <point x="623" y="-142"/>
      <point x="666" y="-315" type="curve"/>
      <point x="669" y="-325"/>
      <point x="664" y="-331"/>
      <point x="653" y="-332" type="curve"/>
      <point x="448" y="-337"/>
      <point x="278" y="-171"/>
    </contour>
    <contour>
      <point x="260" y="166" type="curve" smooth="yes"/>
      <point x="290" y="361"/>
      <point x="398" y="559"/>
      <point x="530" y="678" type="curve" smooth="yes"/>
      <point x="538" y="685"/>
      <point x="544" y="680"/>
      <point x="545" y="667" type="curve" smooth="yes"/>
      <point x="565" y="289"/>
      <point x="565" y="295"/>
      <point x="544" y="280" type="curve" smooth="yes"/>
      <point x="457" y="217"/>
      <point x="369" y="179"/>
      <point x="277" y="154" type="curve" smooth="yes"/>
      <point x="267" y="151"/>
      <point x="258" y="154"/>
    </contour>
  </outline>
</glyph>
<glyph name="alefMaksura-ar.fina" format="1">
  <advance width="1411"/>
  <unicode hex="FEF0"/>
  <outline>
    <contour>
      <point x="698" y="-554"/>
      <point x="942" y="-496"/>
      <point x="1106" y="-391" type="curve" smooth="yes"/>
      <point x="1208" y="-326"/>
      <point x="1256" y="-262"/>
      <point x="1256" y="-165" type="curve" smooth="yes"/>
      <point x="1256" y="-82"/>
      <point x="1108" y="-16"/>
      <point x="1034" y="10" type="curve"/>
      <point x="1093" y="4"/>
      <point x="1324" y="0"/>
      <point x="1371" y="0" type="curve" smooth="yes"/>
      <point x="1411" y="0" type="line"/>
      <point x="1453" y="52"/>
      <point x="1453" y="104"/>
      <point x="1411" y="156" type="curve"/>
      <point x="947" y="156" type="line" smooth="yes"/>
      <point x="870" y="156"/>
      <point x="862" y="157"/>
      <point x="824" y="80" type="curve" smooth="yes"/>
      <point x="773" y="-24"/>
      <point x="773" y="-25"/>
      <point x="840" y="-51" type="curve" smooth="yes"/>
      <point x="959" y="-97"/>
      <point x="1083" y="-152"/>
      <point x="1160" y="-193" type="curve" smooth="yes"/>
      <point x="1173" y="-200"/>
      <point x="1173" y="-205"/>
      <point x="1159" y="-213" type="curve" smooth="yes"/>
      <point x="949" y="-328"/>
      <point x="759" y="-385"/>
      <point x="578" y="-382" type="curve" smooth="yes"/>
      <point x="359" y="-378"/>
      <point x="197" y="-258"/>
      <point x="283" y="81" type="curve" smooth="yes"/>
      <point x="331" y="270" type="line" smooth="yes"/>
      <point x="333" y="278"/>
      <point x="329" y="286"/>
      <point x="320" y="288" type="curve" smooth="yes"/>
      <point x="256" y="302" type="line" smooth="yes"/>
      <point x="248" y="304"/>
      <point x="240" y="300"/>
      <point x="238" y="291" type="curve"/>
      <point x="186" y="92" type="line" smooth="yes"/>
      <point x="79" y="-316"/>
      <point x="208" y="-554"/>
      <point x="564" y="-554" type="curve" smooth="yes"/>
    </contour>
    <contour>
      <point x="585" y="410" type="move" name="top"/>
    </contour>
    <contour>
      <point x="625" y="-706" type="move" name="bottom"/>
    </contour>
  </outline>
</glyph>
<glyph name="yeh-ar.fina" format="1">
  <advance width="1411"/>
  <unicode hex="FEF2"/>
  <outline>
    <contour>
      <point x="585" y="410" type="move" name="top"/>
    </contour>
    <component base="alefMaksura-ar.fina"/>
    <component base="twodotshorizontalbelow-ar" xOffset="389" yOffset="-557"/>
  </outline>
</glyph>
<glyph name="yeh-ar.init" format="1">
  <advance width="649"/>
  <unicode hex="FEF3"/>
  <outline>
    <contour>
      <point x="361" y="981" type="move" name="top"/>
    </contour>
    <component base="dotlessbeh-ar.init"/>
    <component base="twodotshorizontalbelow-ar" xOffset="18" yOffset="-7"/>
  </outline>
</glyph>
<glyph name="yeh-ar.medi" format="1">
  <advance width="794"/>
  <unicode hex="FEF4"/>
  <outline>
    <contour>
      <point x="460" y="687" type="move" name="top"/>
    </contour>
    <component base="dotlessbeh-ar.medi"/>
    <component base="twodotshorizontalbelow-ar" xOffset="86" yOffset="-6"/>
  </outline>
</glyph>
<glyph name="lam_alefHamzaabove-ar" format="1">
  <advance width="1087"/>
  <unicode hex="FEF7"/>
  <outline>
    <contour>
      <point x="288" y="1903" type="move" name="top_2"/>
    </contour>
    <component base="lam_alef-ar"/>
    <component base="hamzaabove-ar" xOffset="141" yOffset="838"/>
  </outline>
</glyph>
<glyph name="lam_alefHamzaabove-ar.fina" format="1">
  <advance width="1230"/>
  <unicode hex="FEF8"/>
  <outline>
    <contour>
      <point x="371" y="1772" type="move" name="top_2"/>
    </contour>
    <component base="lam_alef-ar.fina"/>
    <component base="hamzaabove-ar" xOffset="98" yOffset="700"/>
  </outline>
</glyph>
<glyph name="lam_alef-ar.fina" format="1">
  <advance width="1230"/>
  <unicode hex="FEFC"/>
  <outline>
    <contour>
      <point x="1022" y="-151" type="move" name="bottom_1"/>
    </contour>
    <contour>
      <point x="253" y="-284" type="move" name="bottom_2"/>
    </contour>
    <contour>
      <point x="570" y="1332" type="move" name="caret_1"/>
    </contour>
    <contour>
      <point x="992" y="1425" type="move" name="top_1"/>
    </contour>
    <contour>
      <point x="291" y="1214" type="move" name="top_2"/>
    </contour>
    <contour>
      <point x="839" y="496" type="curve"/>
      <point x="861" y="116"/>
      <point x="911" y="0"/>
      <point x="1160" y="0" type="curve" smooth="yes"/>
      <point x="1219" y="0" type="line" smooth="yes"/>
      <point x="1227" y="0"/>
      <point x="1232" y="2"/>
      <point x="1237" y="9" type="curve" smooth="yes"/>
      <point x="1270" y="55"/>
      <point x="1270" y="101"/>
      <point x="1237" y="147" type="curve" smooth="yes"/>
      <point x="1232" y="154"/>
      <point x="1227" y="156"/>
      <point x="1219" y="156" type="curve" smooth="yes"/>
      <point x="1172" y="156" type="line" smooth="yes"/>
      <point x="1122" y="156"/>
      <point x="1029" y="172"/>
      <point x="968" y="203" type="curve"/>
      <point x="933" y="566"/>
      <point x="918" y="930"/>
      <point x="923" y="1293" type="curve" smooth="yes"/>
      <point x="923" y="1305"/>
      <point x="914" y="1308"/>
      <point x="904" y="1302" type="curve" smooth="yes"/>
      <point x="786" y="1230"/>
      <point x="781" y="1229"/>
      <point x="783" y="1067" type="curve" smooth="yes"/>
      <point x="787" y="771"/>
      <point x="777" y="311"/>
      <point x="621" y="162" type="curve"/>
      <point x="585" y="394"/>
      <point x="323" y="939"/>
      <point x="264" y="1062" type="curve" smooth="yes"/>
      <point x="259" y="1073"/>
      <point x="249" y="1074"/>
      <point x="243" y="1064" type="curve" smooth="yes"/>
      <point x="169" y="937" type="line" smooth="yes"/>
      <point x="165" y="930"/>
      <point x="164" y="924"/>
      <point x="168" y="916" type="curve" smooth="yes"/>
      <point x="300" y="654"/>
      <point x="419" y="400"/>
      <point x="526" y="144" type="curve" smooth="yes"/>
      <point x="539" y="114"/>
      <point x="534" y="92"/>
      <point x="504" y="81" type="curve" smooth="yes"/>
      <point x="419" y="49"/>
      <point x="304" y="22"/>
      <point x="162" y="-7" type="curve" smooth="yes"/>
      <point x="152" y="-9"/>
      <point x="147" y="-17"/>
      <point x="153" y="-26" type="curve" smooth="yes"/>
      <point x="213" y="-119" type="line"/>
      <point x="217" y="-126"/>
      <point x="223" y="-131"/>
      <point x="232" y="-129" type="curve"/>
      <point x="696" y="-72"/>
      <point x="805" y="34"/>
    </contour>
  </outline>
</glyph>
<glyph name="alef-ar.fina.short" format="1">
  <advance width="579"/>
  <outline>
    <contour>
      <point x="408" y="-150" type="move" name="bottom"/>
    </contour>
    <contour>
      <point x="295" y="1324" type="move" name="top"/>
    </contour>
    <contour>
      <point x="579" y="0" type="line"/>
      <point x="621" y="52"/>
      <point x="621" y="104"/>
      <point x="579" y="156" type="curve"/>
      <point x="521" y="156" type="line" smooth="yes"/>
      <point x="474" y="156"/>
      <point x="379" y="174"/>
      <point x="318" y="211" type="curve" smooth="yes"/>
      <point x="311" y="215"/>
      <point x="308" y="220"/>
      <point x="308" y="229" type="curve"/>
      <point x="291" y="1162" type="line"/>
      <point x="291" y="1174"/>
      <point x="284" y="1179"/>
      <point x="273" y="1172" type="curve" smooth="yes"/>
      <point x="159" y="1100" type="line"/>
      <point x="152" y="1095"/>
      <point x="149" y="1091"/>
      <point x="150" y="1082" type="curve"/>
      <point x="196" y="342" type="line" smooth="yes"/>
      <point x="211" y="107"/>
      <point x="267" y="0"/>
      <point x="479" y="0" type="curve" smooth="yes"/>
    </contour>
  </outline>
</glyph>
<glyph name="dotcenter-ar" format="1">
  <advance width="0"/>
  <outline>
    <contour>
      <point x="123" y="555" type="move" name="_center"/>
    </contour>
    <contour>
      <point x="139" y="429" type="curve"/>
      <point x="239" y="552" type="line"/>
      <point x="245" y="560"/>
      <point x="247" y="576"/>
      <point x="239" y="583" type="curve" smooth="yes"/>
      <point x="122" y="679" type="line"/>
      <point x="119" y="681"/>
      <point x="116" y="683"/>
      <point x="113" y="679" type="curve" smooth="yes"/>
      <point x="3" y="542" type="line"/>
      <point x="-1" y="538"/>
      <point x="-1" y="535"/>
      <point x="3" y="532" type="curve" smooth="yes"/>
      <point x="132" y="429" type="line"/>
      <point x="134" y="427"/>
      <point x="137" y="427"/>
    </contour>
  </outline>
</glyph>
<glyph name="dotlessfeh-ar.fina" format="1">
  <advance width="1806"/>
  <outline>
    <contour>
      <point x="737" y="-200" type="move" name="bottom"/>
    </contour>
    <contour>
      <point x="1420" y="1021" type="move" name="top"/>
    </contour>
    <contour>
      <point x="1318" y="75" type="curve" smooth="yes"/>
      <point x="1324" y="77"/>
      <point x="1329" y="77"/>
      <point x="1336" y="74" type="curve"/>
      <point x="1450" y="31"/>
      <point x="1603" y="0"/>
      <point x="1766" y="0" type="curve" smooth="yes"/>
      <point x="1806" y="0" type="line"/>
      <point x="1848" y="52"/>
      <point x="1848" y="104"/>
      <point x="1806" y="156" type="curve"/>
      <point x="1766" y="156" type="line" smooth="yes"/>
      <point x="1663" y="156"/>
      <point x="1540" y="165"/>
      <point x="1540" y="165" type="curve" smooth="yes"/>
      <point x="1540" y="165"/>
      <point x="1666" y="365"/>
      <point x="1666" y="458" type="curve" smooth="yes"/>
      <point x="1667" y="705"/>
      <point x="1517" y="869"/>
      <point x="1420" y="871" type="curve" smooth="yes"/>
      <point x="1251" y="875"/>
      <point x="1089" y="608"/>
      <point x="1091" y="371" type="curve" smooth="yes"/>
      <point x="1092" y="299"/>
      <point x="1104" y="239"/>
      <point x="1136" y="171" type="curve"/>
      <point x="996" y="143"/>
      <point x="803" y="114"/>
      <point x="652" y="117" type="curve" smooth="yes"/>
      <point x="417" y="121"/>
      <point x="224" y="186"/>
      <point x="243" y="387" type="curve" smooth="yes"/>
      <point x="255" y="550" type="line"/>
      <point x="256" y="559"/>
      <point x="250" y="565"/>
      <point x="241" y="566" type="curve" smooth="yes"/>
      <point x="186" y="571" type="line" smooth="yes"/>
      <point x="177" y="572"/>
      <point x="171" y="566"/>
      <point x="170" y="557" type="curve" smooth="yes"/>
      <point x="155" y="387" type="line" smooth="yes"/>
      <point x="121" y="84"/>
      <point x="262" y="-36"/>
      <point x="579" y="-44" type="curve" smooth="yes"/>
      <point x="826" y="-50"/>
      <point x="1122" y="2"/>
    </contour>
    <contour>
      <point x="1177" y="441" type="curve" smooth="yes"/>
      <point x="1185" y="535"/>
      <point x="1290" y="687"/>
      <point x="1385" y="687" type="curve" smooth="yes"/>
      <point x="1506" y="687"/>
      <point x="1565" y="455"/>
      <point x="1577" y="403" type="curve"/>
      <point x="1578" y="395"/>
      <point x="1577" y="389"/>
      <point x="1573" y="383" type="curve" smooth="yes"/>
      <point x="1529" y="316"/>
      <point x="1476" y="256"/>
      <point x="1411" y="206" type="curve"/>
      <point x="1405" y="201"/>
      <point x="1399" y="200"/>
      <point x="1391" y="203" type="curve"/>
      <point x="1258" y="246"/>
      <point x="1167" y="321"/>
    </contour>
  </outline>
</glyph>
<glyph name="hahThreedotsabove-ar.medi" format="1">
  <advance width="1397"/>
  <outline>
    <component base="hah-ar.medi"/>
    <component base="threedotsupabove-ar" xOffset="222" yOffset="267"/>
    <contour>
      <point x="670" y="-115" type="move" name="bottom"/>
    </contour>
  </outline>
</glyph>
<glyph name="hahThreedotsabove-ar.fina" format="1">
  <advance width="1114"/>
  <outline>
    <contour>
      <point x="690" y="-822" type="move" name="bottom"/>
    </contour>
    <component base="hah-ar.fina"/>
    <component base="threedotsupabove-ar" xOffset="166" yOffset="349"/>
  </outline>
</glyph>
<glyph name="hahThreedotsabove-ar.init" format="1">
  <advance width="1444"/>
  <outline>
    <contour>
      <point x="625" y="-131" type="move" name="bottom"/>
    </contour>
    <component base="hah-ar.init"/>
    <component base="threedotsupabove-ar" xOffset="215" yOffset="271"/>
  </outline>
</glyph>
<glyph name="hahThreedotsabove-ar.medi" format="1">
  <advance width="1397"/>
  <outline>
    <contour>
      <point x="670" y="-115" type="move" name="bottom"/>
    </contour>
    <component base="hah-ar.medi"/>
    <component base="threedotsupabove-ar" xOffset="222" yOffset="267"/>
  </outline>
</glyph>
<glyph name="lam_alefWasla-ar" format="1">
  <advance width="1087"/>
  <outline>
    <component base="lam_alef-ar"/>
    <component base="wasla-ar" xOffset="-50" yOffset="50"/>
    <contour>
      <point x="262" y="1613" type="move" name="top_2"/>
    </contour>
  </outline>
</glyph>
<glyph name="lam_alefWasla-ar.fina" format="1">
  <advance width="1230"/>
  <outline>
    <contour>
      <point x="385" y="1551" type="move" name="top_2"/>
    </contour>
    <component base="lam_alef-ar.fina"/>
    <component base="wasla-ar" xOffset="80" yOffset="-42"/>
  </outline>
</glyph>
<glyph name="noonRing-ar.init" format="1">
  <advance width="649"/>
  <outline>
    <contour>
      <point x="224" y="-216" type="move" name="bottom"/>
    </contour>
    <component base="noon-ar.init"/>
    <component base="ringbelow-ar" xOffset="353" yOffset="-789"/>
  </outline>
</glyph>
<glyph name="noonRing-ar.medi" format="1">
  <advance width="794"/>
  <outline>
    <contour>
      <point x="314" y="-316" type="move" name="bottom"/>
    </contour>
    <component base="noon-ar.medi"/>
    <component base="ringbelow-ar" xOffset="179" yOffset="-863"/>
  </outline>
</glyph>
<glyph name="ringcenter-ar" format="1">
  <advance width="0"/>
  <outline>
    <contour>
      <point x="112" y="765" type="move" name="_center"/>
    </contour>
    <contour>
      <point x="229" y="767" type="curve" smooth="yes"/>
      <point x="233" y="841"/>
      <point x="191" y="925"/>
      <point x="117" y="925" type="curve" smooth="yes"/>
      <point x="50" y="925"/>
      <point x="5" y="816"/>
      <point x="1" y="751" type="curve" smooth="yes"/>
      <point x="-8" y="649"/>
      <point x="33" y="610"/>
      <point x="83" y="607" type="curve" smooth="yes"/>
      <point x="160" y="605"/>
      <point x="224" y="687"/>
    </contour>
    <contour>
      <point x="39" y="750" type="curve"/>
      <point x="39" y="778"/>
      <point x="68" y="840"/>
      <point x="104" y="840" type="curve" smooth="yes"/>
      <point x="143" y="840"/>
      <point x="185" y="776"/>
      <point x="185" y="755" type="curve" smooth="yes"/>
      <point x="185" y="727"/>
      <point x="133" y="692"/>
      <point x="99" y="692" type="curve" smooth="yes"/>
      <point x="63" y="692"/>
      <point x="41" y="719"/>
    </contour>
  </outline>
</glyph>
<glyph name="seven-persian.urdu" format="1">
  <advance width="962"/>
  <outline>
    <contour>
      <point x="798" y="9" type="curve" smooth="yes"/>
      <point x="806" y="10"/>
      <point x="810" y="15"/>
      <point x="813" y="22" type="curve"/>
      <point x="861" y="157" type="line" smooth="yes"/>
      <point x="865" y="169"/>
      <point x="859" y="175"/>
      <point x="848" y="173" type="curve" smooth="yes"/>
      <point x="642" y="137"/>
      <point x="385" y="132"/>
      <point x="180" y="165" type="curve"/>
      <point x="180" y="202"/>
      <point x="214" y="296"/>
      <point x="284" y="396" type="curve" smooth="yes"/>
      <point x="418" y="584"/>
      <point x="573" y="760"/>
      <point x="738" y="964" type="curve"/>
      <point x="743" y="971"/>
      <point x="744" y="977"/>
      <point x="743" y="984" type="curve" smooth="yes"/>
      <point x="721" y="1122" type="line" smooth="yes"/>
      <point x="719" y="1135"/>
      <point x="710" y="1138"/>
      <point x="702" y="1127" type="curve"/>
      <point x="545" y="929"/>
      <point x="269" y="632"/>
      <point x="159" y="399" type="curve" smooth="yes"/>
      <point x="103" y="280"/>
      <point x="86" y="150"/>
      <point x="113" y="20" type="curve" smooth="yes"/>
      <point x="115" y="11"/>
      <point x="120" y="6"/>
      <point x="129" y="5" type="curve" smooth="yes"/>
      <point x="366" y="-25"/>
      <point x="589" y="-23"/>
    </contour>
  </outline>
</glyph>
<glyph name="tehRing-ar.fina" format="1">
  <advance width="1734"/>
  <outline>
    <component base="teh-ar.fina"/>
    <component base="ringbelow-ar" xOffset="245" yOffset="-913"/>
    <contour>
      <point x="773" y="-197" type="move" name="bottom"/>
    </contour>
  </outline>
</glyph>
<glyph name="tehRing-ar.init" format="1">
  <advance width="649"/>
  <outline>
    <component base="teh-ar.init"/>
    <component base="ringbelow-ar" xOffset="353" yOffset="-789"/>
    <contour>
      <point x="224" y="-216" type="move" name="bottom"/>
    </contour>
  </outline>
</glyph>
<glyph name="tehRing-ar.fina" format="1">
  <advance width="1734"/>
  <outline>
    <contour>
      <point x="773" y="-197" type="move" name="bottom"/>
    </contour>
    <component base="teh-ar.fina"/>
    <component base="ringbelow-ar" xOffset="245" yOffset="-913"/>
  </outline>
</glyph>
<glyph name="tehRing-ar.init" format="1">
  <advance width="649"/>
  <outline>
    <contour>
      <point x="224" y="-216" type="move" name="bottom"/>
    </contour>
    <component base="teh-ar.init"/>
    <component base="ringbelow-ar" xOffset="353" yOffset="-789"/>
  </outline>
</glyph>
<glyph name="vbelow-ar" format="1">
  <advance width="0"/>
  <outline>
    <contour>
      <point x="204" y="337" type="move" name="_bottom"/>
    </contour>
    <contour>
      <point x="230" y="-241" type="move" name="bottom"/>
    </contour>
    <component base="vabove-ar" yOffset="-1000"/>
  </outline>
</glyph>
<glyph name="wasla-ar" format="1">
  <advance width="0"/>
  <outline>
    <contour>
      <point x="323" y="1254" type="move" name="_top"/>
    </contour>
    <contour>
      <point x="392" y="1655" type="move" name="top"/>
    </contour>
    <contour>
      <point x="557" y="1324" type="curve" smooth="yes"/>
      <point x="627" y="1385"/>
      <point x="550" y="1512"/>
      <point x="444" y="1512" type="curve" smooth="yes"/>
      <point x="385" y="1513"/>
      <point x="313" y="1460"/>
      <point x="217" y="1345" type="curve"/>
      <point x="174" y="1366"/>
      <point x="130" y="1402"/>
      <point x="106" y="1402" type="curve" smooth="yes"/>
      <point x="74" y="1402"/>
      <point x="64" y="1390"/>
      <point x="4" y="1321" type="curve"/>
      <point x="4" y="1322" type="line"/>
      <point x="-1" y="1316"/>
      <point x="-1" y="1309"/>
      <point x="4" y="1303" type="curve"/>
      <point x="19" y="1289" type="line"/>
      <point x="25" y="1284"/>
      <point x="32" y="1284"/>
      <point x="39" y="1290" type="curve"/>
      <point x="73" y="1326"/>
      <point x="85" y="1338"/>
      <point x="85" y="1338" type="curve"/>
      <point x="107" y="1338"/>
      <point x="175" y="1256"/>
      <point x="326" y="1256" type="curve" smooth="yes"/>
      <point x="430" y="1256"/>
      <point x="506" y="1278"/>
    </contour>
    <contour>
      <point x="423" y="1450" type="curve" smooth="yes"/>
      <point x="483" y="1450"/>
      <point x="522" y="1395"/>
      <point x="535" y="1372" type="curve"/>
      <point x="472" y="1334"/>
      <point x="360" y="1321"/>
      <point x="261" y="1328" type="curve"/>
      <point x="336" y="1417"/>
      <point x="381" y="1450"/>
    </contour>
  </outline>
</glyph>
<glyph name="wawTwodots-ar.fina" format="1">
  <advance width="953"/>
  <outline>
    <contour>
      <point x="388" y="-621" type="move" name="bottom"/>
    </contour>
    <component base="waw-ar.fina"/>
    <component base="twodotshorizontalabove-ar" xOffset="241" yOffset="136"/>
  </outline>
</glyph>
<glyph name="yehTail-ar.fina" format="1">
  <advance width="1787"/>
  <outline>
    <contour>
      <point x="934" y="-700" type="move" name="bottom"/>
    </contour>
    <contour>
      <point x="954" y="430" type="move" name="top"/>
    </contour>
    <contour>
      <point x="1482" y="-391" type="curve" smooth="yes"/>
      <point x="1584" y="-326"/>
      <point x="1632" y="-262"/>
      <point x="1632" y="-165" type="curve" smooth="yes"/>
      <point x="1632" y="-82"/>
      <point x="1484" y="-16"/>
      <point x="1410" y="10" type="curve"/>
      <point x="1469" y="4"/>
      <point x="1700" y="0"/>
      <point x="1747" y="0" type="curve" smooth="yes"/>
      <point x="1787" y="0" type="line"/>
      <point x="1829" y="52"/>
      <point x="1829" y="104"/>
      <point x="1787" y="156" type="curve"/>
      <point x="1323" y="156" type="line" smooth="yes"/>
      <point x="1246" y="156"/>
      <point x="1238" y="157"/>
      <point x="1200" y="80" type="curve" smooth="yes"/>
      <point x="1149" y="-24"/>
      <point x="1149" y="-25"/>
      <point x="1216" y="-51" type="curve" smooth="yes"/>
      <point x="1335" y="-97"/>
      <point x="1459" y="-152"/>
      <point x="1536" y="-193" type="curve" smooth="yes"/>
      <point x="1549" y="-200"/>
      <point x="1549" y="-205"/>
      <point x="1535" y="-213" type="curve" smooth="yes"/>
      <point x="1325" y="-328"/>
      <point x="1136" y="-385"/>
      <point x="955" y="-382" type="curve" smooth="yes"/>
      <point x="759" y="-379"/>
      <point x="629" y="-306"/>
      <point x="635" y="-82" type="curve" smooth="yes"/>
      <point x="640" y="91"/>
      <point x="680" y="237"/>
      <point x="568" y="202" type="curve" smooth="yes"/>
      <point x="168" y="78" type="line" smooth="yes"/>
      <point x="159" y="75"/>
      <point x="150" y="77"/>
      <point x="150" y="67" type="curve" smooth="yes"/>
      <point x="150" y="56"/>
      <point x="222" y="-71"/>
      <point x="328" y="-43" type="curve" smooth="yes"/>
      <point x="377" y="-30"/>
      <point x="464" y="3"/>
      <point x="552" y="33" type="curve"/>
      <point x="492" y="-346"/>
      <point x="580" y="-554"/>
      <point x="941" y="-554" type="curve" smooth="yes"/>
      <point x="1075" y="-554"/>
      <point x="1318" y="-496"/>
    </contour>
  </outline>
</glyph>
<glyph name="yehbarree-ar.fina.001" format="1">
  <advance width="1196"/>
  <outline>
    <contour>
      <point x="1488" y="-441" type="line"/>
      <point x="1486" y="-375"/>
      <point x="1511" y="-292"/>
      <point x="1393" y="-292" type="curve" smooth="yes"/>
      <point x="389" y="-291" type="line" smooth="yes"/>
      <point x="273" y="-291"/>
      <point x="226" y="-254"/>
      <point x="248" y="-194" type="curve" smooth="yes"/>
      <point x="279" y="-111"/>
      <point x="506" y="-48"/>
      <point x="598" y="71" type="curve" smooth="yes"/>
      <point x="683" y="180"/>
      <point x="731" y="175"/>
      <point x="785" y="126" type="curve" smooth="yes"/>
      <point x="884" y="39"/>
      <point x="988" y="0"/>
      <point x="1088" y="0" type="curve" smooth="yes"/>
      <point x="1196" y="0" type="line"/>
      <point x="1238" y="52"/>
      <point x="1238" y="104"/>
      <point x="1196" y="156" type="curve"/>
      <point x="1115" y="156" type="line" smooth="yes"/>
      <point x="943" y="156"/>
      <point x="918" y="210"/>
      <point x="847" y="270" type="curve" smooth="yes"/>
      <point x="765" y="340"/>
      <point x="704" y="345"/>
      <point x="629" y="251" type="curve" smooth="yes"/>
      <point x="598" y="213"/>
      <point x="551" y="165"/>
      <point x="463" y="115" type="curve" smooth="yes"/>
      <point x="330" y="40"/>
      <point x="245" y="-23"/>
      <point x="191" y="-149" type="curve" smooth="yes"/>
      <point x="107" y="-339"/>
      <point x="150" y="-441"/>
      <point x="345" y="-441" type="curve" smooth="yes"/>
    </contour>
  </outline>
</glyph>
